<svg width="24" height="24" viewBox="0 0 24 24" fill="none" xmlns="http://www.w3.org/2000/svg">
<circle cx="12" cy="12" r="11.5" fill="white" stroke="#E6BA1E"/>
<path d="M11.467 6.66748H10.4003C7.73366 6.66748 6.66699 7.73415 6.66699 10.4008V13.6008C6.66699 16.2675 7.73366 17.3341 10.4003 17.3341H13.6003C16.267 17.3341 17.3337 16.2675 17.3337 13.6008V12.5341" stroke="#E6BA1E" stroke-width="1.5" stroke-linecap="round" stroke-linejoin="round"/>
<path d="M14.1546 7.2107L9.95194 11.4134C9.79194 11.5734 9.63194 11.888 9.59994 12.1174L9.3706 13.7227C9.28527 14.304 9.69594 14.7094 10.2773 14.6294L11.8826 14.4C12.1066 14.368 12.4213 14.208 12.5866 14.048L16.7893 9.84537C17.5146 9.12004 17.8559 8.27737 16.7893 7.2107C15.7226 6.14404 14.8799 6.48537 14.1546 7.2107Z" stroke="#E6BA1E" stroke-width="1.5" stroke-miterlimit="10" stroke-linecap="round" stroke-linejoin="round"/>
<path d="M13.5518 7.81299C13.9091 9.08765 14.9064 10.085 16.1864 10.4477" stroke="#E6BA1E" stroke-width="1.5" stroke-miterlimit="10" stroke-linecap="round" stroke-linejoin="round"/>
</svg>
