<svg width="29" height="30" viewBox="0 0 29 30" fill="none" xmlns="http://www.w3.org/2000/svg">
<path fill-rule="evenodd" clip-rule="evenodd" d="M11.3344 8.89786C18.9511 3.63262 19.5199 14.0534 27 7.54701V18.1647C19.8658 24.5799 18.3268 14.2147 11.3344 19.4824V8.89786ZM9.45326 6C10.256 6 10.9067 6.65101 10.9067 7.45326C10.9067 7.98619 10.6196 8.45182 10.1921 8.70481H10.2607V9.95V22.1196V23.3648H10.1921C10.6196 23.6178 10.9067 23.9485 10.9067 24.6162C10.9067 25.2837 10.256 26.0691 9.45326 26.0691C8.65068 26.0691 8 25.2835 8 24.6162C8 23.9485 8.28696 23.6178 8.71438 23.3648H8.64595V22.1196V9.95V8.70481H8.71438C8.28696 8.45182 8 7.98635 8 7.45326C8 6.65101 8.65068 6 9.45326 6Z" fill="#333333"/>
</svg>
