<svg width="20" height="20" viewBox="0 0 20 20" fill="none" xmlns="http://www.w3.org/2000/svg">
<path d="M2.14967 15.8419L2.13301 15.8586C1.90801 15.3669 1.76634 14.8086 1.70801 14.1919C1.76634 14.8002 1.92467 15.3502 2.14967 15.8419Z" fill="#63CB60"/>
<path d="M7.49993 8.64977C8.5953 8.64977 9.48327 7.7618 9.48327 6.66644C9.48327 5.57107 8.5953 4.68311 7.49993 4.68311C6.40457 4.68311 5.5166 5.57107 5.5166 6.66644C5.5166 7.7618 6.40457 8.64977 7.49993 8.64977Z" fill="#63CB60"/>
<path d="M13.492 1.6665H6.50866C3.47533 1.6665 1.66699 3.47484 1.66699 6.50817V13.4915C1.66699 14.3998 1.82533 15.1915 2.13366 15.8582C2.85033 17.4415 4.38366 18.3332 6.50866 18.3332H13.492C16.5253 18.3332 18.3337 16.5248 18.3337 13.4915V11.5832V6.50817C18.3337 3.47484 16.5253 1.6665 13.492 1.6665ZM16.9753 10.4165C16.3253 9.85817 15.2753 9.85817 14.6253 10.4165L11.1587 13.3915C10.5087 13.9498 9.45866 13.9498 8.80866 13.3915L8.52532 13.1582C7.93366 12.6415 6.99199 12.5915 6.32533 13.0415L3.20866 15.1332C3.02533 14.6665 2.91699 14.1248 2.91699 13.4915V6.50817C2.91699 4.15817 4.15866 2.9165 6.50866 2.9165H13.492C15.842 2.9165 17.0837 4.15817 17.0837 6.50817V10.5082L16.9753 10.4165Z" fill="#63CB60"/>
</svg>
