<svg width="15" height="15" viewBox="0 0 15 15" fill="none" xmlns="http://www.w3.org/2000/svg">
<path d="M3.625 6.04232V4.83398C3.625 2.83419 4.22917 1.20898 7.25 1.20898C10.2708 1.20898 10.875 2.83419 10.875 4.83398V6.04232" stroke="#292D32" stroke-width="1.5" stroke-linecap="round" stroke-linejoin="round"/>
<path d="M7.25065 11.1771C8.08483 11.1771 8.76107 10.5008 8.76107 9.66667C8.76107 8.83249 8.08483 8.15625 7.25065 8.15625C6.41647 8.15625 5.74023 8.83249 5.74023 9.66667C5.74023 10.5008 6.41647 11.1771 7.25065 11.1771Z" stroke="#292D32" stroke-width="1.5" stroke-linecap="round" stroke-linejoin="round"/>
<path d="M10.2715 13.291H4.22982C1.81315 13.291 1.20898 12.6868 1.20898 10.2702V9.06185C1.20898 6.64518 1.81315 6.04102 4.22982 6.04102H10.2715C12.6882 6.04102 13.2923 6.64518 13.2923 9.06185V10.2702C13.2923 12.6868 12.6882 13.291 10.2715 13.291Z" stroke="#292D32" stroke-width="1.5" stroke-linecap="round" stroke-linejoin="round"/>
</svg>
