<svg width="29" height="30" viewBox="0 0 29 30" fill="none" xmlns="http://www.w3.org/2000/svg">
<path d="M17.202 16.4424H15.798C15.7748 16.4424 15.7563 16.4517 15.7408 16.4656C15.7253 16.481 15.7176 16.5011 15.7176 16.5228V19.4823C15.7176 19.5055 15.7269 19.524 15.7408 19.5395C15.7563 19.5549 15.7764 19.5627 15.798 19.5627H17.2004C17.2236 19.5627 17.2422 19.5534 17.2576 19.5395C17.2731 19.524 17.2808 19.5039 17.2808 19.4823V16.5228C17.2808 16.4996 17.2716 16.481 17.2576 16.4656C17.2437 16.4486 17.2236 16.4424 17.202 16.4424ZM8.07926 10.1601H12.9483V8.76383C12.9483 8.552 13.0349 8.36182 13.1725 8.2242C13.3117 8.08659 13.5034 8 13.7122 8H19.2878C19.4997 8 19.6883 8.08659 19.8275 8.2242C19.9651 8.36182 20.0517 8.55509 20.0517 8.76383V10.1601H24.9207C25.2192 10.1601 25.4882 10.2822 25.6815 10.4786C25.8778 10.675 26 10.944 26 11.2393V13.8463C24.78 14.6828 23.5214 15.3956 22.2241 15.977C20.9191 16.5614 19.5739 17.0145 18.1823 17.3268V16.2847C18.1823 16.0466 18.0849 15.827 17.9287 15.6693C17.7725 15.5131 17.553 15.4157 17.3133 15.4157H15.6851C15.447 15.4157 15.2275 15.5131 15.0697 15.6693C14.9136 15.8254 14.8162 16.045 14.8162 16.2847V17.3036C13.4617 16.9928 12.1489 16.5475 10.8764 15.977C9.54354 15.3801 8.25244 14.6426 7 13.7767V11.2393C7 10.9409 7.12215 10.6719 7.31852 10.4786C7.51335 10.2822 7.78394 10.1601 8.07926 10.1601ZM26 15.3925V22.468C26 22.7664 25.8778 23.0355 25.6815 23.2288C25.4851 23.4251 25.2161 23.5473 24.9207 23.5473H8.07926C7.78084 23.5473 7.5118 23.4251 7.31852 23.2288C7.12215 23.0324 7 22.7633 7 22.468V15.3276C8.06535 16.011 9.16162 16.6078 10.2888 17.1134C11.7438 17.766 13.2529 18.2654 14.8177 18.5994V19.7204C14.8177 19.9585 14.9151 20.1781 15.0713 20.3358C15.2275 20.4919 15.4486 20.5894 15.6867 20.5894H17.3149C17.553 20.5894 17.7725 20.4919 17.9303 20.3358C18.0864 20.1796 18.1838 19.96 18.1838 19.7204V18.5452L18.2008 18.6164C19.795 18.2808 21.332 17.7768 22.8132 17.1119C23.9049 16.6233 24.9671 16.0481 26 15.3925ZM18.7065 9.04061H14.2966C14.2703 9.04061 14.2487 9.04989 14.2286 9.06999C14.2131 9.08545 14.1992 9.11174 14.1992 9.13802V10.1307H18.7992V9.13802C18.7992 9.11174 18.79 9.09009 18.7699 9.06999C18.7544 9.05452 18.7281 9.04061 18.7018 9.04061H18.7065Z" fill="#333333"/>
</svg>
