<svg width="29" height="30" viewBox="0 0 29 30" fill="none" xmlns="http://www.w3.org/2000/svg">
<path fill-rule="evenodd" clip-rule="evenodd" d="M7.66775 16.7534L8.70461 19.9116L9.22679 18.0369L8.97038 17.748C8.85434 17.5735 8.83001 17.4223 8.89364 17.2904C9.03214 17.0074 9.3185 17.0597 9.58613 17.0597C9.86687 17.0597 10.2131 17.0055 10.3011 17.368C10.331 17.4901 10.2936 17.6162 10.2112 17.748L9.95484 18.0369L10.477 19.9116L11.4166 16.7534C12.0941 17.3854 14.0985 17.5115 14.8453 17.9419C15.0811 18.0776 15.2945 18.2521 15.4648 18.4866C15.725 18.8414 15.884 19.3067 15.9271 19.8961L16.0824 22.3059C16.045 22.7228 15.8167 22.9632 15.3656 23H9.58988H3.71682C3.26577 22.9632 3.03743 22.7228 3 22.3059L3.15534 19.8961C3.19839 19.3067 3.35747 18.8414 3.61763 18.4866C3.78981 18.2521 4.0013 18.0795 4.23899 17.9419C4.98576 17.5115 6.99024 17.3854 7.66775 16.7534ZM17.022 14.3145L17.6115 14.299L18.1019 14.2854C17.5292 12.4611 17.7219 10.786 19.0976 9.36299C19.3315 10.1443 19.8556 10.7899 20.7446 11.2668C21.1713 11.5945 21.583 11.99 21.9817 12.4456C22.0528 12.1451 21.7833 11.7786 21.4558 11.4006C21.759 11.5557 22.036 11.7728 22.2344 12.1897C22.4627 12.6724 22.4608 13.0815 22.3841 13.6049C22.3485 13.8492 22.2905 14.076 22.21 14.2854H23.0242C23.8832 12.3796 23.3386 9.55105 21.5812 8.35291C21.0422 7.98649 20.6547 8.00006 20.0221 8.00006C19.2978 8.00006 18.9273 8.02333 18.3078 8.44791C17.3925 9.07412 16.8311 10.1579 16.5952 11.6643C16.5466 12.4145 16.5148 13.7116 17.022 14.3145ZM19.2623 17.7829L19.7021 16.2009L19.4869 15.9566C19.3895 15.8093 19.3689 15.6813 19.4232 15.5708C19.5393 15.3323 19.7826 15.3769 20.0072 15.3769C20.243 15.3769 20.535 15.3304 20.6098 15.6367C20.6341 15.7395 20.6042 15.8461 20.535 15.9566L20.3197 16.2009L20.7595 17.7829L20.0109 18.3955L19.2623 17.7829ZM23.1982 17.2342C22.8651 16.5421 22.4421 15.9527 21.9499 15.4021C22.8763 15.7744 23.8233 16.1408 24.5252 16.5964C24.9706 16.8853 25.2027 17.1043 25.3824 17.4552C25.7661 18.2016 25.8072 18.8705 25.8652 19.679L26 21.0768H20.0109H17.08C17.0444 20.2121 17.0819 19.5704 16.8049 18.7406C16.6888 18.3936 16.5297 18.0834 16.3314 17.81C16.1985 17.6278 16.0431 17.4649 15.8709 17.3156C15.71 17.1761 15.5415 17.0597 15.3712 16.9609C15.3001 16.9201 15.2252 16.8814 15.1466 16.8465C15.2477 16.7651 15.3637 16.6836 15.4985 16.5964C16.2003 16.1408 17.1455 15.7744 18.0738 15.4021C17.5816 15.9547 17.1586 16.5421 16.8255 17.2342L17.7912 17.209L20.0128 19.2098L22.2344 17.209L23.1982 17.2342ZM7.13809 12.2653C7.04451 12.275 6.97339 12.2982 6.92099 12.3351C6.8873 12.3583 6.86297 12.3874 6.84612 12.4242C6.82741 12.465 6.81992 12.5154 6.82179 12.5716C6.82741 12.748 6.91724 12.9826 7.09317 13.2521L7.09692 13.256L7.67711 14.2098C7.90919 14.5917 8.15062 14.9795 8.45195 15.2645C8.7383 15.5359 9.08642 15.7201 9.54496 15.7201C10.0428 15.722 10.4059 15.5301 10.7016 15.2432C11.0104 14.9426 11.2575 14.5297 11.4989 14.1167L12.1502 13.0059C12.2831 12.6937 12.3224 12.5018 12.2794 12.4107C12.255 12.3583 12.1652 12.3389 12.0192 12.3467C11.9181 12.3777 11.8002 12.3738 11.6617 12.3351L11.9256 11.2862C10.7315 11.2707 9.91553 11.0555 8.94979 10.4157C8.63162 10.2063 8.53617 9.96593 8.21987 9.9892C7.98031 10.0377 7.77818 10.1482 7.61909 10.3265C7.46562 10.4971 7.34958 10.7317 7.27472 11.0303L7.46749 12.2711C7.33648 12.3002 7.22793 12.2943 7.13809 12.2653ZM12.3243 11.988C12.4609 12.0307 12.5601 12.1121 12.62 12.2381C12.7173 12.4417 12.678 12.7441 12.4946 13.1765C12.4908 13.1842 12.4871 13.192 12.4834 13.1997L11.8227 14.3261C11.5663 14.7623 11.308 15.1986 10.9599 15.5359C10.5987 15.8868 10.1514 16.1214 9.54122 16.1195C8.97225 16.1175 8.54179 15.8926 8.1918 15.5592C7.85304 15.2393 7.59663 14.8283 7.35145 14.425L6.77313 13.4712C6.5579 13.1396 6.44747 12.8353 6.43999 12.5852C6.43624 12.465 6.45683 12.3564 6.49988 12.2594C6.5448 12.1586 6.61405 12.0733 6.7095 12.0074C6.75441 11.9764 6.80682 11.9493 6.86297 11.9279C6.82741 11.4142 6.81431 10.7763 6.83864 10.2412C6.85174 10.1113 6.8742 9.98144 6.90976 9.85155C7.05761 9.30289 7.43006 8.8628 7.8886 8.55842C8.05143 8.45179 8.22736 8.36261 8.41639 8.29281C9.52999 7.87599 11.0048 8.10282 11.7946 8.98882C12.1165 9.34942 12.3187 9.82828 12.3617 10.4603L12.3243 11.988Z" fill="#333333"/>
</svg>
