<svg width="80" height="111" viewBox="0 0 80 111" fill="none" xmlns="http://www.w3.org/2000/svg">
<path d="M14.775 0.573437C15.484 0.739023 16.1718 0.97254 16.8342 1.27399C17.5007 1.57544 18.1249 1.93633 18.7193 2.36091C19.3095 2.78549 19.8529 3.26526 20.3539 3.79598C20.8507 4.33095 21.2922 4.90413 21.6744 5.52401C22.0607 6.1439 22.3791 6.7935 22.6339 7.47283C22.8929 8.1564 23.0797 8.85695 23.1986 9.57449C23.3132 10.292 23.3599 11.0181 23.3387 11.7441C23.3132 12.4744 23.2198 13.1919 23.05 13.9009C22.8844 14.61 22.6509 15.2978 22.3494 15.9601C22.0522 16.6225 21.6871 17.2509 21.2625 17.841C20.8379 18.4354 20.3582 18.9789 19.8274 19.4756C19.2967 19.9724 18.7193 20.414 18.0994 20.8003C17.4838 21.1824 16.8342 21.5051 16.1506 21.7599C15.467 22.0146 14.7665 22.2014 14.0489 22.3203C13.3314 22.4392 12.6054 22.4859 11.8793 22.4604C11.1491 22.4392 10.4315 22.3415 9.72248 22.176C9.01344 22.0104 8.32562 21.7769 7.66328 21.4754C7.00094 21.174 6.37256 20.8131 5.7824 20.3885C5.18799 19.9639 4.64453 19.4841 4.14778 18.9534C3.65102 18.4184 3.20946 17.8453 2.82309 17.2254C2.44097 16.6055 2.12254 15.9559 1.86355 15.2766C1.6088 14.593 1.42198 13.8924 1.3031 13.1749C1.18422 12.4531 1.13752 11.7313 1.16299 11.0053C1.18847 10.275 1.28187 9.55751 1.44746 8.84846C1.61305 8.13941 1.84656 7.4516 2.14801 6.78926C2.44946 6.12692 2.8146 5.49854 3.23918 4.90838C3.66376 4.31397 4.13928 3.77051 4.67425 3.27375C5.20497 2.77275 5.77815 2.33544 6.39804 1.94907C7.01792 1.56695 7.66753 1.24427 8.3511 0.989523C9.03042 0.734776 9.73097 0.547962 10.4528 0.42908C11.1703 0.310199 11.8921 0.263496 12.6223 0.28897C13.3484 0.310198 14.0659 0.407851 14.775 0.573437Z" fill="#00BF63"/>
<mask id="mask0_509_2701" style="mask-type:luminance" maskUnits="userSpaceOnUse" x="0" y="0" width="80" height="80">
<path d="M0.464844 0H79.81V79.0564H0.464844V0Z" fill="white"/>
</mask>
<g mask="url(#mask0_509_2701)">
<path fill-rule="evenodd" clip-rule="evenodd" d="M12.409 78.7902C11.3051 78.8072 10.2224 78.6628 9.161 78.3571C8.1038 78.0514 7.11029 77.5971 6.18471 76.9942C5.26338 76.3913 4.44394 75.6653 3.73914 74.8204C3.0301 73.9755 2.46116 73.0414 2.03234 72.0267C1.59927 71.0119 1.32754 69.9547 1.21715 68.8551C1.10251 67.7597 1.14922 66.6685 1.36151 65.5858C1.57379 64.5032 1.93893 63.4714 2.45692 62.4992C2.97915 61.5269 3.62875 60.648 4.40998 59.871L60.743 3.52955C61.2567 3.01156 61.8171 2.54877 62.4243 2.14118C63.0314 1.73358 63.6683 1.38967 64.3434 1.10521C65.0185 0.824984 65.7148 0.612695 66.4281 0.468339C67.1456 0.323982 67.8674 0.251805 68.5977 0.247559C69.3279 0.247559 70.054 0.31549 70.7672 0.459847C71.4848 0.599958 72.1811 0.808002 72.8562 1.08822C73.5313 1.36844 74.1724 1.70811 74.7795 2.1157C75.3867 2.51905 75.9513 2.98184 76.4651 3.49558C76.9831 4.01356 77.4459 4.57401 77.8492 5.18115C78.2568 5.79254 78.5965 6.43366 78.8767 7.10874C79.1569 7.78381 79.365 8.47588 79.5051 9.19341C79.6494 9.91095 79.7173 10.6327 79.7173 11.363C79.7131 12.0933 79.6409 12.8193 79.4966 13.5326C79.3522 14.2501 79.1399 14.9464 78.8597 15.6173C78.5752 16.2924 78.2313 16.9335 77.8237 17.5406C77.4161 18.1435 76.9533 18.704 76.4354 19.2177L39.0343 56.6188H68.5892C69.3152 56.6188 70.037 56.6909 70.7545 56.831C71.4678 56.9754 72.1599 57.1834 72.8349 57.4637C73.5058 57.7439 74.1469 58.0835 74.7498 58.4869C75.3569 58.8945 75.9174 59.353 76.4311 59.8668C76.9491 60.3848 77.4076 60.941 77.811 61.5481C78.2186 62.1552 78.5583 62.7921 78.8385 63.4672C79.1144 64.138 79.3267 64.8343 79.4668 65.5476C79.6112 66.2609 79.6834 66.9827 79.6834 67.713C79.6834 68.439 79.6112 69.1608 79.4668 69.8741C79.3267 70.5916 79.1144 71.2837 78.8385 71.9588C78.5583 72.6296 78.2186 73.2707 77.811 73.8736C77.4076 74.4807 76.9491 75.0412 76.4311 75.5549C75.9174 76.0687 75.3569 76.5315 74.7498 76.9348C74.1469 77.3382 73.5058 77.6821 72.8349 77.958C72.1599 78.2383 71.4678 78.4505 70.7545 78.5907C70.037 78.735 69.3152 78.8029 68.5892 78.8029L12.409 78.7902Z" fill="#00BF63"/>
</g>
<path d="M11.7183 106.772C12.317 106.772 12.7543 106.848 13.026 106.993C13.2978 107.141 13.4846 107.358 13.5865 107.638C13.6884 107.91 13.7393 108.262 13.7393 108.691C13.7393 109.124 13.6969 109.472 13.6205 109.744C13.5398 110.007 13.4421 110.203 13.3317 110.338C13.2298 110.474 13.0685 110.576 12.8562 110.644C12.6057 110.733 12.2151 110.78 11.6844 110.78H2.03797C1.68557 110.78 1.34591 110.687 1.01899 110.491C0.339662 110.109 0 109.502 0 108.674C0 108.267 0.0891611 107.94 0.27173 107.689L7.45559 97.754H2.13987C1.76624 97.754 1.48602 97.7455 1.3077 97.72C1.12513 97.6988 0.917088 97.6351 0.679325 97.5332C0.225026 97.3082 0 96.7265 0 95.784C0 94.7989 0.208043 94.2003 0.628375 93.9838C0.853401 93.8606 1.0572 93.7884 1.23977 93.763C1.41809 93.7417 1.68982 93.729 2.05496 93.729H11.3787C11.7268 93.729 12.0623 93.8267 12.3807 94.0177C12.7076 94.2003 12.9624 94.4423 13.1449 94.748C13.3233 95.0537 13.4167 95.4188 13.4167 95.8349C13.4167 96.2552 13.319 96.5907 13.1279 96.8369L5.96107 106.772H11.7183Z" fill="#00BF63"/>
<path d="M17.7812 95.785C17.7812 95.4369 17.7897 95.1694 17.8152 94.9868C17.8364 94.8085 17.9086 94.6047 18.036 94.3754C18.2483 93.9594 18.8512 93.7471 19.8362 93.7471C20.9104 93.7471 21.5515 94.0358 21.7553 94.6132C21.8317 94.8764 21.8742 95.2756 21.8742 95.819V108.692C21.8742 109.066 21.8614 109.338 21.8402 109.507C21.8147 109.677 21.7426 109.877 21.6194 110.102C21.4029 110.522 20.8042 110.73 19.8192 110.73C18.7323 110.73 18.0954 110.437 17.9171 109.847C17.8237 109.601 17.7812 109.21 17.7812 108.675V95.785Z" fill="#00BF63"/>
<path d="M30.3507 107.3H36.6515C37.161 107.3 37.5261 107.363 37.7554 107.486C37.9931 107.601 38.1502 107.784 38.2309 108.03C38.3073 108.268 38.3498 108.599 38.3498 109.015C38.3498 109.422 38.3073 109.754 38.2309 110C38.1502 110.238 38.0186 110.403 37.8403 110.492C37.5431 110.654 37.144 110.73 36.6345 110.73H28.2958C27.2089 110.73 26.572 110.437 26.3937 109.847C26.3003 109.601 26.2578 109.21 26.2578 108.675V95.785C26.2578 95.4369 26.2663 95.1694 26.2918 94.9868C26.313 94.8085 26.3852 94.6047 26.5126 94.3754C26.7248 93.9594 27.3277 93.7471 28.3128 93.7471C29.387 93.7471 30.0281 94.0358 30.2319 94.6132C30.3083 94.8764 30.3507 95.2756 30.3507 95.819V107.3Z" fill="#00BF63"/>
<path d="M50.353 93.5396C52.6372 93.5396 54.62 94.3675 56.2971 96.0191C57.9826 97.6749 58.8276 99.7214 58.8276 102.167C58.8276 104.613 58.0209 106.697 56.4159 108.417C54.8068 110.141 52.8325 110.998 50.4888 110.998C48.1452 110.998 46.1454 110.149 44.4938 108.451C42.8507 106.752 42.0312 104.731 42.0312 102.388C42.0312 101.11 42.2605 99.9082 42.7276 98.7873C43.1903 97.6664 43.806 96.7281 44.5787 95.9681C45.3472 95.2124 46.2346 94.618 47.2451 94.1849C48.2513 93.7561 49.2873 93.5396 50.353 93.5396ZM46.1412 102.286C46.1412 103.657 46.5827 104.774 47.4658 105.632C48.349 106.481 49.3382 106.905 50.4379 106.905C51.5333 106.905 52.5268 106.493 53.4099 105.665C54.2931 104.829 54.7346 103.708 54.7346 102.303C54.7346 100.889 54.2846 99.7554 53.393 98.9062C52.5098 98.0571 51.5163 97.6325 50.4209 97.6325C49.3213 97.6325 48.332 98.0656 47.4489 98.9232C46.5742 99.7851 46.1412 100.906 46.1412 102.286Z" fill="#00BF63"/>
<path d="M70.8334 93.5371C73.1177 93.5371 75.1005 94.365 76.7775 96.0166C78.4631 97.6725 79.308 99.719 79.308 102.165C79.308 104.61 78.5013 106.695 76.8964 108.414C75.2873 110.138 73.313 110.996 70.9693 110.996C68.6256 110.996 66.6259 110.147 64.9743 108.448C63.3312 106.75 62.5117 104.729 62.5117 102.385C62.5117 101.107 62.741 99.9058 63.208 98.7849C63.6708 97.664 64.2865 96.7257 65.0592 95.9657C65.8277 95.2099 66.715 94.6155 67.7255 94.1825C68.7318 93.7536 69.7678 93.5371 70.8334 93.5371ZM66.6216 102.283C66.6216 103.655 67.0632 104.771 67.9463 105.629C68.8294 106.478 69.8187 106.903 70.9184 106.903C72.0138 106.903 73.0073 106.491 73.8904 105.663C74.7735 104.827 75.2151 103.706 75.2151 102.3C75.2151 100.887 74.765 99.7529 73.8734 98.9038C72.9903 98.0546 71.9968 97.63 70.9014 97.63C69.8017 97.63 68.8125 98.0631 67.9293 98.9208C67.0547 99.7826 66.6216 100.904 66.6216 102.283Z" fill="#00BF63"/>
</svg>
