<svg width="51" height="51" viewBox="0 0 51 51" fill="none" xmlns="http://www.w3.org/2000/svg">
<path d="M36.1265 19.125C36.1265 27.3487 28.9865 34 20.189 34L18.2127 36.38L17.044 37.7825C16.0452 38.9725 14.1327 38.7175 13.474 37.2937L10.6265 31.0249C6.75896 28.3049 4.25146 23.9912 4.25146 19.125C4.25146 10.9012 11.3915 4.25 20.189 4.25C26.6065 4.25 32.1527 7.79876 34.639 12.8988C35.5952 14.79 36.1265 16.8937 36.1265 19.125Z" stroke="#333333" stroke-width="1.5" stroke-linecap="round" stroke-linejoin="round"/>
<path d="M46.7509 27.3271C46.7509 32.1934 44.2434 36.5072 40.3759 39.2272L37.5284 45.4959C36.8696 46.9196 34.9571 47.1959 33.9584 45.9847L30.8134 42.2021C25.6709 42.2021 21.0809 39.9284 18.2122 36.3797L20.1884 33.9997C28.9859 33.9997 36.1259 27.3484 36.1259 19.1247C36.1259 16.8934 35.5946 14.7897 34.6384 12.8984C41.5871 14.4922 46.7509 20.3571 46.7509 27.3271Z" stroke="#333333" stroke-width="1.5" stroke-linecap="round" stroke-linejoin="round"/>
<path d="M14.8745 19.125H25.4995" stroke="#333333" stroke-width="1.5" stroke-linecap="round" stroke-linejoin="round"/>
</svg>
