<svg width="41" height="33" viewBox="0 0 41 33" fill="none" xmlns="http://www.w3.org/2000/svg">
<path d="M22.0148 17.9194H18.9852C18.9351 17.9194 18.8951 17.9391 18.8617 17.9687C18.8284 18.0015 18.8117 18.0442 18.8117 18.0901V24.3718C18.8117 24.421 18.8317 24.4604 18.8617 24.4932C18.8951 24.526 18.9385 24.5424 18.9852 24.5424H22.0115C22.0615 24.5424 22.1016 24.5227 22.1349 24.4932C22.1683 24.4604 22.185 24.4177 22.185 24.3718V18.0901C22.185 18.0409 22.165 18.0015 22.1349 17.9687C22.1049 17.9326 22.0615 17.9194 22.0148 17.9194ZM2.32894 4.58488H12.8359V1.62128C12.8359 1.17166 13.0227 0.767976 13.3197 0.475883C13.62 0.183789 14.0337 0 14.4841 0H26.5159C26.973 0 27.38 0.183789 27.6803 0.475883C27.9773 0.767976 28.1641 1.17822 28.1641 1.62128V4.58488H38.6711C39.315 4.58488 39.8956 4.84416 40.3127 5.26096C40.7364 5.67777 41 6.24883 41 6.87568V12.409C38.3674 14.1846 35.6515 15.6976 32.8521 16.9316C30.036 18.1722 27.1331 19.1338 24.1302 19.7967V17.5847C24.1302 17.0793 23.92 16.6132 23.583 16.2785C23.246 15.947 22.7722 15.7402 22.255 15.7402H18.7416C18.2278 15.7402 17.754 15.947 17.4137 16.2785C17.0767 16.6099 16.8665 17.076 16.8665 17.5847V19.7475C13.9436 19.0878 11.1108 18.1426 8.36483 16.9316C5.48869 15.6647 2.70264 14.0993 0 12.2614V6.87568C0 6.24227 0.26359 5.67121 0.687337 5.26096C1.10775 4.84416 1.69165 4.58488 2.32894 4.58488ZM41 15.691V30.7092C41 31.3426 40.7364 31.9137 40.3127 32.3239C39.8889 32.7407 39.3084 33 38.6711 33H2.32894C1.68498 33 1.10441 32.7407 0.687337 32.3239C0.26359 31.9071 0 31.3361 0 30.7092V15.5532C2.29891 17.0038 4.66455 18.2706 7.09692 19.3438C10.2367 20.7288 13.4932 21.7889 16.8698 22.4978V24.8772C16.8698 25.3826 17.08 25.8486 17.417 26.1834C17.754 26.5149 18.2311 26.7216 18.745 26.7216H22.2584C22.7722 26.7216 23.246 26.5149 23.5863 26.1834C23.9233 25.8519 24.1335 25.3859 24.1335 24.8772V22.3829L24.1702 22.5339C27.6103 21.8217 30.9268 20.7518 34.1233 19.3405C36.4789 18.3034 38.7712 17.0825 41 15.691ZM25.2613 2.20875H15.7454C15.6886 2.20875 15.6419 2.22844 15.5986 2.27111C15.5652 2.30393 15.5352 2.35972 15.5352 2.41551V4.52253H25.4615V2.41551C25.4615 2.35972 25.4415 2.31377 25.3981 2.27111C25.3647 2.23829 25.308 2.20875 25.2513 2.20875H25.2613Z" fill="#333333"/>
</svg>
