<svg width="37" height="45" viewBox="0 0 37 45" fill="none" xmlns="http://www.w3.org/2000/svg">
<path d="M24.1429 5.45117C24.0337 5.45117 23.9386 5.43717 23.8435 5.40568C23.3576 5.40568 22.9491 5.01375 22.9491 4.51685V2.76717H14.2758V4.51685C14.2758 4.96826 13.9131 5.36019 13.4729 5.39168C13.3778 5.42318 13.2687 5.43717 13.1595 5.43717H9.89162V9.059H27.0023V5.43368H24.1112L24.1429 5.45117ZM9.04647 27.2556C10.0184 27.2556 10.8072 28.0395 10.8072 29.0053C10.8072 29.9711 10.0184 30.755 9.04647 30.755C8.07456 30.755 7.28576 29.9711 7.28576 29.0053C7.28576 28.0395 8.07456 27.2556 9.04647 27.2556ZM7.01108 22.9409C6.76811 22.5805 6.86318 22.0906 7.22941 21.8491C7.59212 21.6077 8.08512 21.7021 8.3281 22.0661L8.76124 22.703L10.4762 20.6313C10.7544 20.2954 11.2544 20.2464 11.5925 20.5229C11.9305 20.7993 11.9798 21.2962 11.7016 21.6322L9.32819 24.5016C9.27537 24.5681 9.21198 24.6276 9.13803 24.6801C8.77532 24.9215 8.28232 24.8271 8.03934 24.4631L7.01108 22.9409ZM7.01108 16.88C6.76811 16.5196 6.86318 16.0297 7.22941 15.7882C7.59212 15.5468 8.08512 15.6413 8.3281 16.0052L8.76124 16.6421L10.4762 14.567C10.7544 14.231 11.2544 14.182 11.5925 14.4585C11.9305 14.7349 11.9798 15.2319 11.7016 15.5678L9.32819 18.4373C9.27537 18.5037 9.21198 18.5632 9.13803 18.6157C8.77532 18.8572 8.28232 18.7627 8.03934 18.3988L7.01108 16.88ZM25.3683 43.7655C25.2098 43.9055 24.9915 44 24.7697 44C24.7239 44 24.6746 44 24.6288 43.986H2.97904C2.44379 43.986 1.94374 43.769 1.58104 43.4086C1.21833 43.0482 1 42.5653 1 42.0159V7.94621C1 7.40031 1.21833 6.9174 1.58104 6.55697C1.94374 6.19653 2.4297 5.97957 2.97904 5.97957H8.1309V5.01025C8.1309 4.64982 8.27176 4.32438 8.5253 4.07243C8.76124 3.83797 9.09225 3.6805 9.46904 3.6805H12.5186V2.46623C12.5186 2.0603 12.6912 1.69987 12.9588 1.43742C13.2229 1.17147 13.5856 1 13.9941 1H23.2801C23.6886 1 24.0513 1.17147 24.3154 1.43742C24.583 1.70337 24.7556 2.0603 24.7556 2.46623V3.684H27.5058C27.8685 3.684 28.196 3.84147 28.4496 4.07593C28.6855 4.31038 28.844 4.65332 28.844 5.01375V5.98307H33.9958C34.5452 5.98307 35.0311 6.20003 35.3938 6.56047C35.7565 6.9209 35.9749 7.40381 35.9749 7.94971V32.5256C36.0453 32.8791 35.9713 33.152 35.7072 33.4145L25.4775 43.7026C25.4458 43.7341 25.4317 43.748 25.4 43.7655H25.3683ZM23.8752 42.2188C23.8752 30.454 22.3821 31.8503 34.1648 31.8503V7.94621C34.1648 7.90072 34.1508 7.83773 34.1015 7.80623C34.0698 7.77474 34.024 7.74325 33.9606 7.74325H28.8087V9.52441C28.8087 9.88485 28.6679 10.2103 28.4143 10.4622C28.1784 10.6967 27.8474 10.8542 27.4706 10.8542H9.45144C9.08873 10.8542 8.74363 10.6967 8.50769 10.4622C8.476 10.4307 8.46191 10.3993 8.43022 10.3678C8.24006 10.1333 8.11681 9.83586 8.11681 9.52441V7.74325H2.96496C2.91918 7.74325 2.85579 7.75724 2.8241 7.80623C2.79241 7.83773 2.76072 7.90072 2.76072 7.94621V42.0159C2.76072 42.0789 2.7748 42.1244 2.8241 42.1558C2.85579 42.1873 2.90157 42.2188 2.96496 42.2188H23.8611H23.8752ZM15.5189 29.6247C15.0329 29.6247 14.6244 29.2327 14.6244 28.7358C14.6244 28.2529 15.0188 27.847 15.5189 27.847H24.0161C24.502 27.847 24.9105 28.2389 24.9105 28.7358C24.9105 29.2188 24.5161 29.6247 24.0161 29.6247H15.5189ZM15.5189 16.929C15.0329 16.929 14.6244 16.5371 14.6244 16.0402C14.6244 15.5573 15.0188 15.1514 15.5189 15.1514H28.6045C29.0905 15.1514 29.4989 15.5433 29.4989 16.0402C29.4989 16.5231 29.1045 16.929 28.6045 16.929H15.5189ZM15.5189 23.2769C15.0329 23.2769 14.6244 22.8849 14.6244 22.388C14.6244 21.9051 15.0188 21.4992 15.5189 21.4992H28.6045C29.0905 21.4992 29.4989 21.8911 29.4989 22.388C29.4989 22.8709 29.1045 23.2769 28.6045 23.2769H15.5189Z" fill="#333333" stroke="#333333" stroke-width="0.3"/>
</svg>
