<svg width="20" height="20" viewBox="0 0 20 20" fill="none" xmlns="http://www.w3.org/2000/svg">
<path d="M17.6247 5.14134C17.283 4.95801 16.5663 4.76634 15.5913 5.44967L14.3663 6.31634C14.2747 3.72467 13.1497 2.70801 10.4163 2.70801H5.41634C2.56634 2.70801 1.45801 3.81634 1.45801 6.66634V13.333C1.45801 15.2497 2.49967 17.2913 5.41634 17.2913H10.4163C13.1497 17.2913 14.2747 16.2747 14.3663 13.683L15.5913 14.5497C16.108 14.9163 16.558 15.033 16.9163 15.033C17.2247 15.033 17.4663 14.9413 17.6247 14.858C17.9663 14.683 18.5413 14.208 18.5413 13.0163V6.98301C18.5413 5.79134 17.9663 5.31634 17.6247 5.14134ZM9.16634 9.48301C8.30801 9.48301 7.59967 8.78301 7.59967 7.91634C7.59967 7.04967 8.30801 6.34967 9.16634 6.34967C10.0247 6.34967 10.733 7.04967 10.733 7.91634C10.733 8.78301 10.0247 9.48301 9.16634 9.48301Z" fill="#FF65A9"/>
</svg>
