<svg width="20" height="20" viewBox="0 0 20 20" fill="none" xmlns="http://www.w3.org/2000/svg">
<path d="M18.3333 4.04173V13.9501C18.3333 14.7584 17.675 15.5001 16.8667 15.6001L16.6083 15.6334C15.2417 15.8167 13.3167 16.3834 11.7667 17.0334C11.225 17.2584 10.625 16.8501 10.625 16.2584V4.66673C10.625 4.3584 10.8 4.07507 11.075 3.92507C12.6 3.10007 14.9083 2.36673 16.475 2.2334H16.525C17.525 2.2334 18.3333 3.04173 18.3333 4.04173Z" fill="#A3A5FC"/>
<path d="M8.92487 3.92507C7.39987 3.10007 5.09154 2.36673 3.52487 2.2334H3.46654C2.46654 2.2334 1.6582 3.04173 1.6582 4.04173V13.9501C1.6582 14.7584 2.31654 15.5001 3.12487 15.6001L3.3832 15.6334C4.74987 15.8167 6.67487 16.3834 8.22487 17.0334C8.76654 17.2584 9.36654 16.8501 9.36654 16.2584V4.66673C9.36654 4.35006 9.19987 4.07507 8.92487 3.92507ZM4.16654 6.45006H6.04154C6.3832 6.45006 6.66654 6.7334 6.66654 7.07506C6.66654 7.42506 6.3832 7.70006 6.04154 7.70006H4.16654C3.82487 7.70006 3.54154 7.42506 3.54154 7.07506C3.54154 6.7334 3.82487 6.45006 4.16654 6.45006ZM6.66654 10.2001H4.16654C3.82487 10.2001 3.54154 9.92506 3.54154 9.57506C3.54154 9.2334 3.82487 8.95006 4.16654 8.95006H6.66654C7.0082 8.95006 7.29154 9.2334 7.29154 9.57506C7.29154 9.92506 7.0082 10.2001 6.66654 10.2001Z" fill="#A3A5FC"/>
</svg>
