<svg width="29" height="30" viewBox="0 0 29 30" fill="none" xmlns="http://www.w3.org/2000/svg">
<path fill-rule="evenodd" clip-rule="evenodd" d="M17 5.79141C22.0859 5.79141 26.2086 9.91453 26.2086 15C26.2086 20.0855 22.0859 24.2086 17 24.2086C11.9145 24.2086 7.79141 20.0855 7.79141 15C7.79141 9.91453 11.9145 5.79141 17 5.79141ZM17 3C20.3131 3 23.3136 4.34344 25.4853 6.51469C27.6566 8.68641 29 11.6864 29 15C29 18.3136 27.6566 21.3141 25.4853 23.4853C23.3141 25.6566 20.3136 27 17 27C13.6864 27 10.6864 25.6566 8.51469 23.4853C6.34344 21.3136 5 18.3131 5 15C5 11.6864 6.34344 8.68641 8.51469 6.51469C10.6864 4.34344 13.6864 3 17 3ZM24.6537 7.34625C22.6948 5.38781 19.9887 4.17609 17 4.17609C14.0108 4.17609 11.3047 5.38781 9.34625 7.34625C7.38781 9.30469 6.17609 12.0108 6.17609 15C6.17609 17.9887 7.38781 20.6948 9.34625 22.6537C11.3047 24.6122 14.0108 25.8239 17 25.8239C19.9892 25.8239 22.6953 24.6122 24.6537 22.6537C26.6122 20.6953 27.8239 17.9892 27.8239 15C27.8239 12.0108 26.6122 9.30469 24.6537 7.34625ZM18.4133 13.2548C18.3856 12.9408 18.2595 12.6989 18.0355 12.5231C17.8803 12.4017 17.6778 12.322 17.4298 12.285V14.1061L17.8817 14.2083C18.3116 14.3025 18.6931 14.4262 19.025 14.5823C19.355 14.7384 19.633 14.9259 19.8589 15.142C20.0848 15.3558 20.2564 15.6056 20.3722 15.8859C20.4884 16.1677 20.5484 16.4836 20.5522 16.8309C20.5484 17.3827 20.4087 17.8547 20.1345 18.2503C19.8589 18.6445 19.4628 18.9483 18.9472 19.1583C18.5169 19.3341 18.0106 19.4358 17.4298 19.4639V20.4516H16.73V19.4634C16.1473 19.4334 15.6294 19.3275 15.177 19.1442C14.6333 18.9263 14.2114 18.5944 13.9114 18.1486C13.6095 17.7028 13.4558 17.1389 13.4473 16.4573H15.4667C15.4827 16.7372 15.5586 16.973 15.6903 17.1591C15.8244 17.347 16.0086 17.4891 16.242 17.5847C16.3906 17.6466 16.5533 17.6883 16.73 17.7108V15.7889L16.1042 15.6436C15.3491 15.4702 14.7552 15.1898 14.3192 14.8022C13.8852 14.4145 13.6695 13.8905 13.6714 13.2286C13.6695 12.6891 13.8153 12.2152 14.1073 11.8092C14.3994 11.4037 14.803 11.0878 15.3209 10.86C15.7433 10.6753 16.2125 10.5656 16.73 10.5314V9.54844H17.4298V10.53C17.9638 10.5623 18.4372 10.6734 18.8492 10.8619C19.3489 11.0916 19.7347 11.4117 20.0108 11.8233C20.2869 12.2353 20.4266 12.7111 20.4327 13.2548H18.4133ZM16.73 12.285C16.6081 12.3028 16.4989 12.33 16.4023 12.367C16.2205 12.4392 16.0845 12.5372 15.9945 12.6591C15.9027 12.7828 15.8567 12.9248 15.8525 13.0828C15.8483 13.215 15.8745 13.3289 15.9327 13.4288C15.9903 13.5286 16.0766 13.6148 16.1881 13.6903C16.3006 13.7667 16.4366 13.8323 16.5941 13.8886C16.6381 13.9041 16.6836 13.9191 16.73 13.9331V12.285ZM17.4298 17.7056C17.5597 17.6864 17.6783 17.6564 17.7856 17.6147C17.9853 17.5387 18.1395 17.4328 18.2473 17.2969C18.3556 17.1591 18.4114 17.003 18.4133 16.8272C18.4114 16.6631 18.3594 16.5216 18.2595 16.4034C18.1597 16.2853 18.0073 16.1836 17.8016 16.0973C17.6933 16.0514 17.5691 16.0073 17.4298 15.9652V17.7056Z" fill="#333333"/>
</svg>
