<svg width="49" height="49" viewBox="0 0 49 49" fill="none" xmlns="http://www.w3.org/2000/svg">
<path fill-rule="evenodd" clip-rule="evenodd" d="M24.5 5.69912C34.8838 5.69912 43.3009 14.1172 43.3009 24.5C43.3009 34.8828 34.8838 43.3009 24.5 43.3009C14.1172 43.3009 5.69912 34.8828 5.69912 24.5C5.69912 14.1172 14.1172 5.69912 24.5 5.69912ZM24.5 0C31.2643 0 37.3903 2.74285 41.8242 7.17582C46.2571 11.6097 49 17.7347 49 24.5C49 31.2653 46.2571 37.3912 41.8242 41.8242C37.3912 46.2571 31.2653 49 24.5 49C17.7347 49 11.6097 46.2571 7.17582 41.8242C2.74285 37.3903 0 31.2643 0 24.5C0 17.7347 2.74285 11.6097 7.17582 7.17582C11.6097 2.74285 17.7347 0 24.5 0ZM40.1264 8.87359C36.127 4.87512 30.602 2.40119 24.5 2.40119C18.397 2.40119 12.8721 4.87512 8.87359 8.87359C4.87512 12.8721 2.40119 18.397 2.40119 24.5C2.40119 30.602 4.87512 36.127 8.87359 40.1264C12.8721 44.1249 18.397 46.5988 24.5 46.5988C30.603 46.5988 36.1279 44.1249 40.1264 40.1264C44.1249 36.1279 46.5988 30.603 46.5988 24.5C46.5988 18.397 44.1249 12.8721 40.1264 8.87359ZM27.3854 20.937C27.329 20.2958 27.0715 19.8019 26.6141 19.443C26.2973 19.1952 25.8839 19.0325 25.3776 18.9569V22.6749L26.3002 22.8836C27.1778 23.0759 27.9568 23.3286 28.6344 23.6473C29.3081 23.966 29.8756 24.3488 30.3369 24.79C30.7982 25.2264 31.1485 25.7365 31.3849 26.3088C31.6222 26.884 31.7447 27.529 31.7524 28.2382C31.7447 29.3646 31.4595 30.3283 30.8997 31.1361C30.3369 31.9409 29.5282 32.5611 28.4755 32.9898C27.597 33.3487 26.5634 33.5564 25.3776 33.6138V35.6303H23.9488V33.6129C22.7592 33.5516 21.7016 33.3353 20.7781 32.9611C19.6679 32.5161 18.8066 31.8385 18.1941 30.9284C17.5778 30.0182 17.2639 28.8669 17.2467 27.4754H21.3696C21.4021 28.0468 21.5571 28.5281 21.8261 28.9081C22.0998 29.2919 22.4759 29.5818 22.9525 29.7771C23.2559 29.9034 23.5879 29.9886 23.9488 30.0345V26.1107L22.6711 25.814C21.1293 25.4599 19.9168 24.8876 19.0267 24.0961C18.1405 23.3047 17.7003 22.2347 17.7041 20.8834C17.7003 19.7818 17.9979 18.8143 18.5942 17.9855C19.1904 17.1577 20.0144 16.5126 21.0719 16.0475C21.9342 15.6704 22.8922 15.4465 23.9488 15.3766V13.3697H25.3776V15.3737C26.4677 15.4398 27.4343 15.6666 28.2755 16.0513C29.2957 16.5203 30.0833 17.1739 30.647 18.0142C31.2107 18.8554 31.4959 19.8268 31.5083 20.937H27.3854ZM23.9488 18.9569C23.6999 18.9932 23.4769 19.0487 23.2798 19.1244C22.9085 19.2717 22.6309 19.4718 22.4472 19.7206C22.2596 19.9732 22.1658 20.2632 22.1572 20.5857C22.1486 20.8556 22.2022 21.0882 22.3208 21.292C22.4386 21.4959 22.6146 21.672 22.8424 21.8261C23.0721 21.982 23.3496 22.116 23.6712 22.2309C23.7612 22.2625 23.854 22.2931 23.9488 22.3218V18.9569ZM25.3776 30.024C25.6427 29.9847 25.8848 29.9235 26.104 29.8383C26.5117 29.6833 26.8265 29.467 27.0467 29.1895C27.2677 28.9081 27.3816 28.5894 27.3854 28.2305C27.3816 27.8955 27.2754 27.6065 27.0715 27.3654C26.8677 27.1242 26.5567 26.9165 26.1365 26.7404C25.9154 26.6466 25.6618 26.5567 25.3776 26.4705V30.024Z" fill="#333333"/>
</svg>
