<svg width="28" height="28" viewBox="0 0 28 28" fill="none" xmlns="http://www.w3.org/2000/svg">
<path d="M25.6667 12.7173V4.78398C25.6667 3.03398 24.92 2.33398 23.065 2.33398H18.3517C16.4967 2.33398 15.75 3.03398 15.75 4.78398V12.7173C15.75 14.4673 16.4967 15.1673 18.3517 15.1673H23.065C24.92 15.1673 25.6667 14.4673 25.6667 12.7173Z" stroke="#333333" stroke-width="1.5" stroke-linecap="round" stroke-linejoin="round"/>
<path d="M25.6667 23.216V21.116C25.6667 19.366 24.92 18.666 23.065 18.666H18.3517C16.4967 18.666 15.75 19.366 15.75 21.116V23.216C15.75 24.966 16.4967 25.666 18.3517 25.666H23.065C24.92 25.666 25.6667 24.966 25.6667 23.216Z" stroke="#333333" stroke-width="1.5" stroke-linecap="round" stroke-linejoin="round"/>
<path d="M12.2497 15.284V23.2173C12.2497 24.9673 11.503 25.6673 9.64801 25.6673H4.93467C3.07967 25.6673 2.33301 24.9673 2.33301 23.2173V15.284C2.33301 13.534 3.07967 12.834 4.93467 12.834H9.64801C11.503 12.834 12.2497 13.534 12.2497 15.284Z" stroke="#333333" stroke-width="1.5" stroke-linecap="round" stroke-linejoin="round"/>
<path d="M12.2497 4.78398V6.88398C12.2497 8.63398 11.503 9.33398 9.64801 9.33398H4.93467C3.07967 9.33398 2.33301 8.63398 2.33301 6.88398V4.78398C2.33301 3.03398 3.07967 2.33398 4.93467 2.33398H9.64801C11.503 2.33398 12.2497 3.03398 12.2497 4.78398Z" stroke="#333333" stroke-width="1.5" stroke-linecap="round" stroke-linejoin="round"/>
</svg>
