<svg width="24" height="24" viewBox="0 0 24 24" fill="none" xmlns="http://www.w3.org/2000/svg">
<circle cx="12" cy="12" r="11.5" fill="white" stroke="#FB6A57"/>
<path d="M16.8002 9.18952C15.0242 9.01352 13.2375 8.92285 11.4562 8.92285C10.4002 8.92285 9.3442 8.97618 8.2882 9.08285L7.2002 9.18952" stroke="#FB6A57" stroke-width="1.5" stroke-linecap="round" stroke-linejoin="round"/>
<path d="M10.1328 8.65089L10.2501 7.95223C10.3355 7.44556 10.3995 7.06689 11.3008 7.06689H12.6981C13.5995 7.06689 13.6688 7.46689 13.7488 7.95756L13.8661 8.65089" stroke="#FB6A57" stroke-width="1.5" stroke-linecap="round" stroke-linejoin="round"/>
<path d="M15.6533 10.8745L15.3067 16.2452C15.248 17.0825 15.2 17.7332 13.712 17.7332H10.288C8.80001 17.7332 8.75201 17.0825 8.69335 16.2452L8.34668 10.8745" stroke="#FB6A57" stroke-width="1.5" stroke-linecap="round" stroke-linejoin="round"/>
<path d="M11.1094 14.7998H12.8854" stroke="#FB6A57" stroke-width="1.5" stroke-linecap="round" stroke-linejoin="round"/>
<path d="M10.667 12.6665H13.3337" stroke="#FB6A57" stroke-width="1.5" stroke-linecap="round" stroke-linejoin="round"/>
</svg>
