<svg width="19" height="19" viewBox="0 0 19 19" fill="none" xmlns="http://www.w3.org/2000/svg">
<path fill-rule="evenodd" clip-rule="evenodd" d="M7.82971 2.82498L8.888 7.58121L13.9251 8.62029L9.45242 11.0386L9.95941 15.8737L6.13644 12.6127L1.41434 14.5625L3.52435 10.1279L0.0968048 6.4973L5.22418 7.01838L7.82971 2.82498ZM10.7027 14.731L15.0769 18.9244C15.182 19.0249 15.3559 19.0249 15.4625 18.926L17.1623 17.338C17.269 17.239 17.269 17.0751 17.164 16.9746L11.1851 11.2613C11.0801 11.1608 10.8028 11.119 10.7995 11.2597L10.7027 14.731ZM13.2852 16.2804L15.2804 18.2023C15.3411 18.2611 15.4428 18.2611 15.5052 18.2023L16.4962 17.2777C16.5585 17.2189 16.5585 17.1246 16.4962 17.0658L14.4551 15.1129L13.2852 16.2804ZM2.64819 5.11341H2.56451C2.56451 4.46709 2.30855 3.90271 1.79663 3.42028C1.28307 2.9394 0.684197 2.69819 0 2.69819V2.61933C0.684197 2.61933 1.28307 2.37812 1.79499 1.89569C2.30691 1.41172 2.56287 0.847339 2.56287 0.204104H2.64655C2.64655 0.848886 2.9025 1.41326 3.41442 1.89569C3.92634 2.37812 4.52522 2.61933 5.20941 2.61933V2.69819C4.52522 2.69819 3.92634 2.9394 3.41442 3.42183C2.90414 3.90425 2.64819 4.46709 2.64819 5.11341ZM15.0523 7.56266H14.9227C14.9227 6.56843 14.5289 5.69944 13.7397 4.95724C12.9505 4.21505 12.0301 3.84395 10.975 3.84395V3.7218C12.0301 3.7218 12.9522 3.3507 13.7397 2.60541C14.5289 1.85858 14.9227 0.99114 14.9227 0H15.0523C15.0523 0.994232 15.4461 1.86322 16.2353 2.60541C17.0245 3.34761 17.945 3.72025 19 3.72025V3.84241C17.945 3.84241 17.0245 4.2135 16.2353 4.9557C15.4461 5.69944 15.0523 6.56843 15.0523 7.56266Z" fill="white"/>
</svg>
