<svg width="20" height="20" viewBox="0 0 20 20" fill="none" xmlns="http://www.w3.org/2000/svg">
<mask id="mask0_330_4312" style="mask-type:luminance" maskUnits="userSpaceOnUse" x="0" y="0" width="20" height="20">
<path d="M0 0H20V20H0V0Z" fill="white"/>
</mask>
<g mask="url(#mask0_330_4312)">
<mask id="mask1_330_4312" style="mask-type:luminance" maskUnits="userSpaceOnUse" x="0" y="0" width="20" height="20">
<path d="M0 0H20V20H0V0Z" fill="white"/>
</mask>
<g mask="url(#mask1_330_4312)">
<path d="M0.625 4.375C0.625 3.68464 1.18464 3.125 1.875 3.125H3.125C3.81536 3.125 4.375 3.68464 4.375 4.375V17.5C4.375 18.1904 3.81536 18.75 3.125 18.75H1.875C1.18464 18.75 0.625 18.1904 0.625 17.5V4.375ZM1.875 4.375V17.5H3.125V4.375H1.875Z" fill="white"/>
<path fill-rule="evenodd" clip-rule="evenodd" d="M3.75 8.75C3.75 9.09518 4.02983 9.375 4.375 9.375H9.375C9.72017 9.375 10 9.09518 10 8.75C10 8.40483 9.72017 8.125 9.375 8.125H4.375C4.02983 8.125 3.75 8.40483 3.75 8.75ZM3.75 15.625C3.75 15.9702 4.02983 16.25 4.375 16.25H9.375C9.72017 16.25 10 15.9702 10 15.625C10 15.2798 9.72017 15 9.375 15H4.375C4.02983 15 3.75 15.2798 3.75 15.625Z" fill="white"/>
<path d="M3.75 6.875C3.75 6.18464 4.30964 5.625 5 5.625H8.75C9.44036 5.625 10 6.18464 10 6.875V17.5C10 18.1904 9.44036 18.75 8.75 18.75H5C4.30964 18.75 3.75 18.1904 3.75 17.5V6.875ZM5 6.875V17.5H8.75V6.875H5Z" fill="white"/>
<path d="M9.375 2.5C9.375 1.80964 9.93464 1.25 10.625 1.25H13.125C13.8154 1.25 14.375 1.80964 14.375 2.5V17.5C14.375 18.1904 13.8154 18.75 13.125 18.75H10.625C9.93464 18.75 9.375 18.1904 9.375 17.5V2.5ZM10.625 2.5V17.5H13.125V2.5H10.625Z" fill="white"/>
<path d="M16.5686 4.37573L14.9905 4.54175C14.9501 4.546 14.9158 4.56632 14.8875 4.6027C14.8536 4.64641 14.8398 4.69723 14.8461 4.75516L16.2101 17.3171C16.2165 17.3755 16.2414 17.4229 16.285 17.4593C16.3216 17.4901 16.3608 17.5033 16.4024 17.4989L17.98 17.3329C18.0205 17.3287 18.0548 17.3084 18.083 17.272C18.1169 17.2283 18.1307 17.1775 18.1245 17.1195L16.7623 4.55944C16.7557 4.50063 16.7301 4.45259 16.6857 4.41531C16.649 4.38457 16.61 4.37138 16.5686 4.37573ZM16.4378 3.13259C16.8308 3.09125 17.1811 3.19951 17.4887 3.45737C17.7884 3.70863 17.9605 4.03106 18.0051 4.42467L19.3672 16.9848C19.4097 17.3774 19.3109 17.7286 19.0706 18.0382C18.8246 18.3554 18.5046 18.5347 18.1108 18.5761L16.5321 18.7421C16.1394 18.7831 15.7895 18.6749 15.4822 18.4175C15.1819 18.1659 15.0103 17.8441 14.9674 17.4521L13.6034 4.88989C13.5608 4.4973 13.6596 4.14616 13.8999 3.83648C14.1459 3.51934 14.4659 3.34004 14.8597 3.29861L16.4378 3.13259Z" fill="white"/>
</g>
</g>
</svg>
