<svg width="22" height="22" viewBox="0 0 22 22" fill="none" xmlns="http://www.w3.org/2000/svg">
<g clip-path="url(#clip0_1378_9938)">
<path d="M13.6641 7.8207H8.33594C6.60645 7.8207 5.19922 9.22793 5.19922 10.9574V11.1293C5.19922 12.8588 6.60645 14.266 8.33594 14.266H9.28813L10.4711 15.9663C10.5914 16.1395 10.789 16.2426 11 16.2426C11.211 16.2426 11.4086 16.1395 11.5289 15.9663L12.7119 14.266H13.6641C15.3936 14.266 16.8008 12.8588 16.8008 11.1293V10.9574C16.8008 9.22793 15.3936 7.8207 13.6641 7.8207ZM8.42188 11.6879C8.06609 11.6879 7.77734 11.3996 7.77734 11.0434C7.77734 10.6876 8.06609 10.3988 8.42188 10.3988C8.77766 10.3988 9.06641 10.6876 9.06641 11.0434C9.06641 11.3996 8.77766 11.6879 8.42188 11.6879ZM11 11.6879C10.6442 11.6879 10.3555 11.3996 10.3555 11.0434C10.3555 10.6876 10.6442 10.3988 11 10.3988C11.3558 10.3988 11.6445 10.6876 11.6445 11.0434C11.6445 11.3996 11.3558 11.6879 11 11.6879ZM13.5781 11.6879C13.2223 11.6879 12.9336 11.3996 12.9336 11.0434C12.9336 10.6876 13.2223 10.3988 13.5781 10.3988C13.9339 10.3988 14.2227 10.6876 14.2227 11.0434C14.2227 11.3996 13.9339 11.6879 13.5781 11.6879ZM1.6008 8.30788C1.25258 8.23273 0.909863 8.45393 0.834754 8.80189C0.680023 9.5187 0.601562 10.2584 0.601562 11.0004C0.601562 11.8869 0.713453 12.7674 0.934184 13.6172C1.00955 13.9074 1.27106 14.0999 1.55757 14.0999C1.61239 14.0998 1.66699 14.0928 1.72004 14.079C2.06461 13.9895 2.27133 13.6377 2.18187 13.2932C1.98859 12.5491 1.89062 11.7777 1.89062 11.0004C1.89062 10.3497 1.95933 9.70149 2.09481 9.07393C2.16992 8.72597 1.94876 8.38299 1.6008 8.30788ZM20.28 14.079C20.333 14.0928 20.3876 14.0998 20.4424 14.0999C20.7289 14.0999 20.9904 13.9074 21.0658 13.6172C21.2865 12.7674 21.3984 11.8869 21.3984 11.0004C21.3984 10.2584 21.32 9.5187 21.1652 8.80185C21.0901 8.45393 20.7474 8.23273 20.3992 8.30784C20.0512 8.38295 19.83 8.72592 19.9051 9.07389C20.0407 9.70149 20.1094 10.3497 20.1094 11.0004C20.1094 11.7777 20.0114 12.5491 19.8181 13.2932C19.7287 13.6377 19.9354 13.9896 20.28 14.079ZM16.2306 6.99927H21.3468C21.7192 6.99927 22.0154 6.68457 21.9902 6.31306C21.9682 5.98662 21.9141 5.66286 21.7975 5.38046C21.3417 4.1617 20.1665 3.29395 18.7887 3.29395C17.4084 3.29395 16.2316 4.16479 15.7775 5.387C15.6623 5.66805 15.609 5.98942 15.5872 6.31357C15.5622 6.68491 15.8585 6.99927 16.2306 6.99927Z" fill="white"/>
<path d="M18.7889 3.29355C19.6984 3.29355 20.4356 2.55627 20.4356 1.64678C20.4356 0.737287 19.6984 0 18.7889 0C17.8794 0 17.1421 0.737287 17.1421 1.64678C17.1421 2.55627 17.8794 3.29355 18.7889 3.29355Z" fill="white"/>
<path d="M6.21179 5.38046C5.75598 4.1617 4.58083 3.29395 3.20303 3.29395C1.82275 3.29395 0.645877 4.16479 0.191826 5.387C0.0766269 5.66805 0.0233027 5.98942 0.00147453 6.31357C-0.0235333 6.68487 0.272779 6.99927 0.644932 6.99927H5.76113C6.1335 6.99927 6.42973 6.68457 6.40455 6.31306C6.38242 5.98662 6.32836 5.66286 6.21179 5.38046Z" fill="white"/>
<path d="M3.20293 3.29355C4.11242 3.29355 4.84971 2.55627 4.84971 1.64678C4.84971 0.737287 4.11242 0 3.20293 0C2.29344 0 1.55615 0.737287 1.55615 1.64678C1.55615 2.55627 2.29344 3.29355 3.20293 3.29355Z" fill="white"/>
<path d="M6.2118 20.3814C5.75598 19.1626 4.58083 18.2949 3.20304 18.2949C1.82275 18.2949 0.645882 19.1657 0.191831 20.388C0.0766318 20.669 0.0233076 20.9904 0.00147943 21.3146C-0.0235713 21.6858 0.272741 22.0002 0.644894 22.0002H5.7611C6.13346 22.0002 6.42969 21.6855 6.40451 21.314C6.38242 20.9876 6.32837 20.6638 6.2118 20.3814Z" fill="white"/>
<path d="M3.20293 18.2945C4.11242 18.2945 4.84971 17.5572 4.84971 16.6478C4.84971 15.7383 4.11242 15.001 3.20293 15.001C2.29344 15.001 1.55615 15.7383 1.55615 16.6478C1.55615 17.5572 2.29344 18.2945 3.20293 18.2945Z" fill="white"/>
<path d="M21.9983 21.314C21.9762 20.9876 21.9222 20.6638 21.8055 20.3814C21.3497 19.1626 20.1746 18.2949 18.7968 18.2949C17.4165 18.2949 16.2396 19.1657 15.7856 20.388C15.6704 20.669 15.6171 20.9904 15.5952 21.3146C15.5702 21.6858 15.8665 22.0002 16.2387 22.0002H21.3549C21.7272 22.0002 22.0235 21.6855 21.9983 21.314Z" fill="white"/>
<path d="M18.7972 18.2945C19.7067 18.2945 20.4439 17.5572 20.4439 16.6478C20.4439 15.7383 19.7067 15.001 18.7972 15.001C17.8877 15.001 17.1504 15.7383 17.1504 16.6478C17.1504 17.5572 17.8877 18.2945 18.7972 18.2945Z" fill="white"/>
<path d="M13.393 19.7918C12.6174 20.0028 11.8126 20.1094 11.0001 20.1094C10.1875 20.1094 9.38273 20.0028 8.60715 19.7918C8.26383 19.6986 7.90934 19.9014 7.81609 20.2452C7.72285 20.5885 7.92566 20.9425 8.26941 21.0362C9.155 21.2764 10.0737 21.3984 11.0001 21.3984C11.9265 21.3984 12.8452 21.2764 13.7307 21.0362C14.0745 20.9425 14.2773 20.5885 14.1841 20.2452C14.0904 19.9014 13.7368 19.6986 13.393 19.7918ZM15.0628 1.4257C13.7767 0.878711 12.4099 0.601562 11.0001 0.601562C9.59027 0.601562 8.22344 0.878711 6.93738 1.4257C6.60996 1.56492 6.45699 1.94305 6.59664 2.2709C6.73586 2.59832 7.11398 2.75086 7.44184 2.61164C8.56762 2.1334 9.76473 1.89062 11.0001 1.89062C12.2354 1.89062 13.4325 2.1334 14.5583 2.61164C14.6408 2.64687 14.7263 2.6632 14.8101 2.6632C15.0611 2.6632 15.2995 2.51625 15.4035 2.2709C15.5432 1.94305 15.3902 1.56492 15.0628 1.4257Z" fill="white"/>
</g>
<defs>
<clipPath id="clip0_1378_9938">
<rect width="22" height="22" fill="white"/>
</clipPath>
</defs>
</svg>
