<svg width="20" height="20" viewBox="0 0 20 20" fill="none" xmlns="http://www.w3.org/2000/svg">
<mask id="mask0_330_4279" style="mask-type:luminance" maskUnits="userSpaceOnUse" x="0" y="0" width="20" height="20">
<path d="M0 0H20V20H0V0Z" fill="white"/>
</mask>
<g mask="url(#mask0_330_4279)">
<path fill-rule="evenodd" clip-rule="evenodd" d="M3.125 7.65625C2.77983 7.65625 2.5 7.93608 2.5 8.28125V17.5C2.5 17.8452 2.62204 18.1398 2.86612 18.3839C3.11019 18.628 3.40482 18.75 3.75 18.75H7.5C7.54104 18.75 7.58168 18.746 7.62193 18.738C7.66218 18.7299 7.70127 18.7181 7.73918 18.7024C7.77709 18.6867 7.81311 18.6675 7.84723 18.6447C7.88135 18.6219 7.91292 18.596 7.94194 18.5669C7.97096 18.5379 7.99687 18.5064 8.01967 18.4722C8.04247 18.4381 8.06172 18.4021 8.07742 18.3642C8.09313 18.3263 8.10498 18.2872 8.11299 18.2469C8.121 18.2067 8.125 18.166 8.125 18.125V12.8125C8.125 12.7262 8.15551 12.6525 8.21653 12.5915C8.27755 12.5305 8.35121 12.5 8.4375 12.5H11.5625C11.6488 12.5 11.7225 12.5305 11.7835 12.5915C11.8445 12.6525 11.875 12.7262 11.875 12.8125V18.125C11.875 18.166 11.879 18.2067 11.887 18.2469C11.895 18.2872 11.9069 18.3263 11.9226 18.3642C11.9383 18.4021 11.9575 18.4381 11.9803 18.4722C12.0031 18.5064 12.029 18.5379 12.0581 18.5669C12.0871 18.596 12.1187 18.6219 12.1528 18.6447C12.1869 18.6675 12.2229 18.6867 12.2608 18.7024C12.2987 18.7181 12.3378 18.7299 12.3781 18.738C12.4183 18.746 12.459 18.75 12.5 18.75H16.25C16.5952 18.75 16.8898 18.628 17.1339 18.3839C17.378 18.1398 17.5 17.8452 17.5 17.5V8.28125C17.5 7.93608 17.2202 7.65625 16.875 7.65625C16.5298 7.65625 16.25 7.93608 16.25 8.28125V17.5H13.125V12.8125C13.125 12.381 12.9725 12.0127 12.6673 11.7076C12.3623 11.4025 11.994 11.25 11.5625 11.25H8.4375C8.00603 11.25 7.63774 11.4026 7.33265 11.7077C7.02755 12.0127 6.875 12.381 6.875 12.8125V17.5H3.75V8.28125C3.75 7.93608 3.47018 7.65625 3.125 7.65625Z" fill="white"/>
<path fill-rule="evenodd" clip-rule="evenodd" d="M18.3178 10.4518L10.0124 2.50138C10.0087 2.50112 10.0046 2.50099 10.0002 2.50098C9.9956 2.50097 9.99141 2.5011 9.98764 2.50137L1.68219 10.4518C1.43284 10.6905 1.0372 10.6818 0.798513 10.4325C0.559825 10.1831 0.568466 9.7875 0.817813 9.54881L9.13401 1.58811C9.35516 1.36272 9.64463 1.25034 10.0024 1.25098C10.3592 1.25162 10.6472 1.36418 10.8666 1.58866L13.125 3.75056V2.5003C13.125 2.45926 13.129 2.41861 13.137 2.37836C13.145 2.33811 13.1569 2.29903 13.1726 2.26112C13.1883 2.2232 13.2075 2.18719 13.2303 2.15306C13.2531 2.11894 13.279 2.08737 13.3081 2.05835C13.3371 2.02933 13.3687 2.00343 13.4028 1.98063C13.4369 1.95783 13.4729 1.93857 13.5108 1.92287C13.5487 1.90717 13.5878 1.89531 13.6281 1.8873C13.6683 1.8793 13.7089 1.87529 13.75 1.87529H15.625C15.6661 1.87529 15.7067 1.8793 15.7469 1.8873C15.7872 1.89531 15.8263 1.90717 15.8642 1.92287C15.9021 1.93857 15.9381 1.95783 15.9722 1.98063C16.0063 2.00343 16.0379 2.02933 16.0669 2.05835C16.096 2.08737 16.1219 2.11894 16.1447 2.15306C16.1675 2.18719 16.1867 2.2232 16.2024 2.26112C16.2181 2.29903 16.23 2.33811 16.238 2.37836C16.246 2.41861 16.25 2.45926 16.25 2.5003V6.74197L19.1822 9.54881C19.4315 9.7875 19.4402 10.1831 19.2015 10.4325C18.9628 10.6818 18.5672 10.6905 18.3178 10.4518ZM15 3.1253V5.5454L14.375 4.94712V3.1253H15Z" fill="white"/>
</g>
</svg>
