<svg width="13" height="17" viewBox="0 0 13 17" fill="none" xmlns="http://www.w3.org/2000/svg">
<path d="M13 7.9016C13 7.45748 12.605 7.09913 12.119 7.09913C11.6313 7.09913 11.2379 7.45886 11.2379 7.9016C11.2379 9.48303 10.8217 10.7891 9.97862 11.6608C9.21454 12.4494 8.06006 12.9046 6.5 12.9046C4.93994 12.9046 3.78546 12.4508 3.02138 11.6622C2.17679 10.7905 1.76209 9.48441 1.76209 7.9016C1.76209 7.45748 1.36714 7.09913 0.881047 7.09913C0.393433 7.09913 0 7.45886 0 7.9016C0 9.8732 0.560528 11.5446 1.69981 12.722C2.53833 13.5881 3.6685 14.1747 5.09184 14.403V15.7202H2.93176C2.54592 15.7202 2.22996 16.008 2.22996 16.3594V17H10.7731V16.3594C10.7731 16.008 10.4571 15.7202 10.0713 15.7202H7.90664V14.403C9.32998 14.1734 10.4586 13.5881 11.2987 12.7206C12.438 11.5446 13 9.8732 13 7.9016ZM6.49848 0C8.29703 0 9.76747 1.34069 9.76747 2.97746V3.05494H8.00993V4.95182H9.76899V5.91755H8.00993V7.81444H9.76899V8.49654C9.76899 10.1347 8.29703 11.474 6.5 11.474C4.70145 11.474 3.23101 10.1333 3.23101 8.49654V7.81444H4.99007V5.91755H3.22949V4.95182H4.98855V3.05494H3.22949V2.97746C3.22949 1.34069 4.69993 0 6.49848 0Z" fill="white"/>
</svg>
