<svg width="21" height="24" viewBox="0 0 21 24" fill="none" xmlns="http://www.w3.org/2000/svg">
<path fill-rule="evenodd" clip-rule="evenodd" d="M8.22154 3.31918C8.30554 3.34262 8.39929 3.33285 8.50087 3.29379L8.33484 2.34447C8.39734 2.10616 8.49305 1.9206 8.62002 1.78387C8.75285 1.64127 8.91888 1.55337 9.11616 1.51431C9.37596 1.49477 9.45409 1.6862 9.71584 1.85419C10.5128 2.36205 11.1847 2.53394 12.1692 2.54762L11.9661 3.36801C12.0305 3.39536 12.1087 3.40317 12.1868 3.3895C12.345 3.37583 12.4407 3.3895 12.4642 3.44029C12.5013 3.51451 12.4681 3.66882 12.3567 3.91885L11.8196 4.80371C11.6203 5.13186 11.4172 5.46198 11.1613 5.70028C10.9171 5.92882 10.6163 6.08118 10.2042 6.08118C9.82522 6.08118 9.53613 5.93273 9.29978 5.71786C9.05171 5.49128 8.85247 5.18265 8.66104 4.87793L8.18248 4.11809L8.18052 4.11418C8.03598 3.89736 7.9598 3.7118 7.95589 3.5692C7.95394 3.52233 7.96175 3.48131 7.97738 3.4481C7.99105 3.4188 8.01254 3.39536 8.03988 3.37583C8.08481 3.34653 8.14341 3.32699 8.22154 3.31918ZM8.66104 6.89572L9.5166 9.40964L9.94633 7.9173L9.73537 7.68681C9.63966 7.54813 9.62012 7.42702 9.67286 7.32349C9.78615 7.09691 10.0225 7.13988 10.2432 7.13988C10.4737 7.13988 10.7589 7.09691 10.8331 7.386C10.8566 7.48367 10.8273 7.58329 10.7589 7.68877L10.548 7.91926L10.9777 9.4116L11.7512 6.89767C12.3098 7.39967 13.9624 7.50125 14.5777 7.84308C14.773 7.95246 14.9468 8.0892 15.0894 8.27672C15.3043 8.55995 15.4352 8.92913 15.4703 9.39988L15.5992 11.4333C15.568 11.7654 15.3805 11.9568 15.0093 11.9861H10.2452H5.40289C5.03176 11.9587 4.84424 11.7673 4.81299 11.4333L4.94191 9.39988C4.97707 8.93108 5.1099 8.55995 5.32476 8.27672C5.4654 8.0892 5.6412 7.95246 5.83653 7.84308C6.44988 7.49929 8.10239 7.39772 8.66104 6.89572ZM11.3293 12.492V14.7969H19.7618V15.8888V16.4787V19.1743H18.08V16.4787H11.3293V18.9048H9.53613V16.4787H2.72684V19.1743H1.04503V16.4787V15.8888V14.7969H9.53613V12.492H11.3293ZM18.9219 20.2311C19.963 20.2311 20.8068 21.0749 20.8068 22.118C20.8068 23.161 19.963 24.0029 18.9219 24.0029C17.8807 24.0029 17.0349 23.1591 17.0349 22.118C17.0349 21.0769 17.8807 20.2311 18.9219 20.2311ZM1.88496 20.2311C2.92608 20.2311 3.77187 21.0749 3.77187 22.118C3.77187 23.161 2.92803 24.0029 1.88496 24.0029C0.841883 24.0029 0 23.1591 0 22.116C0 21.0729 0.843836 20.2311 1.88496 20.2311ZM10.4327 20.2311C11.4738 20.2311 12.3177 21.0749 12.3177 22.118C12.3177 23.161 11.4738 24.0029 10.4327 24.0029C9.39158 24.0029 8.54775 23.1591 8.54775 22.118C8.54775 21.0769 9.39158 20.2311 10.4327 20.2311ZM12.4993 3.10822L12.5286 1.88544C12.4935 1.38148 12.3255 1.00254 12.0618 0.715398C11.4113 0.010248 10.1944 -0.171411 9.27634 0.160654C9.12203 0.2173 8.97553 0.28762 8.8427 0.371613C8.46375 0.613825 8.15708 0.96347 8.03598 1.40101C8.00668 1.50454 7.98714 1.60807 7.97738 1.70964C7.95784 2.13742 7.96956 2.64919 7.99886 3.05743C7.95394 3.07501 7.91096 3.09455 7.87385 3.11994C7.79767 3.17073 7.74102 3.23909 7.70391 3.31723C7.66875 3.39341 7.65312 3.47935 7.65508 3.57311C7.66094 3.77235 7.75274 4.01261 7.92854 4.27631L8.40711 5.03615C8.6083 5.3565 8.82121 5.68465 9.09859 5.93859C9.38768 6.20229 9.73927 6.38199 10.2081 6.38394C10.7101 6.3859 11.0753 6.20033 11.3742 5.92101C11.6594 5.6534 11.8743 5.30571 12.0852 4.95997L12.6302 4.0634C12.6341 4.05754 12.6361 4.05168 12.64 4.04582C12.7904 3.70398 12.8216 3.46373 12.7435 3.30355C12.6907 3.20589 12.6107 3.14143 12.4993 3.10822Z" fill="white"/>
</svg>
