<svg width="26" height="23" viewBox="0 0 26 23" fill="none" xmlns="http://www.w3.org/2000/svg">
<path fill-rule="evenodd" clip-rule="evenodd" d="M16.578 16.5483C12.6995 16.5483 15.2534 16.853 15.7803 12.6382C16.5695 6.33496 22.5638 6.33496 23.4482 12.6382C24.0153 16.6943 26.4465 16.5483 22.6506 16.5483H21.1377C21.1313 17.5809 20.9705 18.1077 22.0412 18.6875C23.1097 19.2651 26 19.5635 26 21.0298V21.9692C26 22.0454 25.9386 22.1068 25.8625 22.1068C17.2424 22.1068 8.62012 22.1068 0 22.1068V19.3879C1.14893 18.8758 4.79671 17.9131 5.08024 16.4764C5.15641 16.0913 4.26774 14.8027 4.03288 14.1193C3.66895 13.5374 3.44466 12.4287 3.87842 11.8024C4.13656 11.4279 4.02653 10.554 4.02653 10.078C4.02653 6.31169 10.6217 6.3138 10.6217 10.078C10.6217 10.4567 10.5456 11.4575 10.7233 11.7326C11.1719 12.4245 11.0259 13.4634 10.6154 14.1193C10.4229 14.7689 9.58708 16.1209 9.62939 16.4764C9.93197 19.0387 13.0931 17.7692 14.4346 19.6883C15.3232 19.3096 16.5039 19.0895 17.2952 18.6156C18.2368 18.0527 18.076 17.4857 18.0697 16.5483H16.578ZM11.0872 0H8.67725C8.30697 0 7.9917 0.131185 7.72721 0.391439C7.46484 0.651693 7.33577 0.969076 7.33577 1.34147V3.69222C7.33577 4.06462 7.46696 4.382 7.72721 4.64225C7.98747 4.90251 8.30485 5.03369 8.67725 5.03369H9.71192C9.63574 5.32992 9.54053 5.61133 9.42204 5.8737C9.30566 6.1403 9.10889 6.39421 8.83594 6.63753C9.35856 6.50212 9.82406 6.29688 10.2345 6.02816C10.6429 5.76156 10.9984 5.42725 11.2904 5.03369H12.1769C12.5472 5.03369 12.8625 4.90039 13.127 4.64225C13.3893 4.382 13.5184 4.06462 13.5184 3.69222V1.33936C13.5184 0.969076 13.3872 0.653809 13.127 0.389323C12.8688 0.126953 12.5514 0 12.179 0H11.0872ZM18.1353 2.69987V5.05062C18.1353 5.26432 18.0972 5.46533 18.0189 5.65153C17.9427 5.83773 17.8306 6.007 17.6761 6.15723C17.6105 6.22282 17.5407 6.28206 17.4688 6.33073C17.3947 6.38363 17.3185 6.42806 17.2402 6.46615C17.2381 6.46826 17.2318 6.46826 17.2275 6.47249C17.126 6.51904 17.0244 6.5529 16.9165 6.57617C16.8044 6.59945 16.688 6.61214 16.5695 6.61214H15.8311C15.8459 6.65869 15.8607 6.70736 15.8776 6.75391C15.922 6.88509 15.9749 7.01416 16.0321 7.14111V7.14323C16.0828 7.26172 16.1527 7.37386 16.2394 7.486C16.3283 7.60238 16.4341 7.71452 16.561 7.82878C16.652 7.90918 16.6626 8.04671 16.578 8.13981C16.5208 8.2054 16.4362 8.22868 16.36 8.20752C16.0871 8.13558 15.8268 8.04883 15.5856 7.94092C15.3423 7.83512 15.1117 7.71029 14.8958 7.56852C14.6821 7.42887 14.4811 7.27018 14.2949 7.09456C14.1383 6.94645 13.9902 6.78353 13.8506 6.61214H13.0762C12.9302 6.61214 12.7884 6.59521 12.6551 6.55925C12.5218 6.52327 12.3949 6.46826 12.2743 6.39421C12.1706 6.33285 12.1388 6.19531 12.2002 6.09163C12.2616 5.98796 12.3991 5.95622 12.5028 6.01758C12.5853 6.06836 12.6742 6.10645 12.7715 6.13395C12.8667 6.16146 12.9704 6.17204 13.0762 6.17204H13.9606C14.0283 6.17204 14.0939 6.20166 14.1383 6.26091C14.278 6.4471 14.4303 6.61849 14.5996 6.77507C14.7646 6.93164 14.9466 7.0734 15.1413 7.20036C15.3275 7.32096 15.5264 7.43099 15.7358 7.5262C15.6935 7.4585 15.6618 7.39079 15.63 7.32308C15.5708 7.18766 15.5137 7.04801 15.465 6.8999C15.4185 6.76025 15.374 6.61637 15.3338 6.47038C15.3254 6.4471 15.3211 6.4196 15.3211 6.39421C15.3211 6.2736 15.4185 6.17204 15.5433 6.17204H16.5716C16.6605 6.17204 16.743 6.16357 16.8234 6.14453C16.8996 6.1276 16.9715 6.10221 17.0392 6.07259C17.0413 6.07048 17.0456 6.07048 17.0477 6.06624C17.1048 6.03874 17.1598 6.007 17.2106 5.97103C17.2635 5.93294 17.3143 5.89062 17.3608 5.83984C17.4709 5.72982 17.5534 5.60921 17.6063 5.47803C17.6592 5.34684 17.6867 5.20296 17.6867 5.04639V2.7041C17.6867 2.54753 17.6592 2.40153 17.6063 2.27246C17.5534 2.14339 17.4709 2.02067 17.3608 1.91064C17.2508 1.80062 17.1302 1.7181 16.999 1.6652C16.8678 1.6123 16.724 1.5848 16.5674 1.5848H15.0059C14.8853 1.5848 14.7837 1.48747 14.7837 1.36263C14.7837 1.24202 14.881 1.14046 15.0059 1.14046H16.5674C16.7811 1.14046 16.9779 1.17855 17.1641 1.25684C17.3503 1.33301 17.5153 1.44515 17.6698 1.59749C17.82 1.74772 17.9364 1.91699 18.0104 2.10319C18.0866 2.28939 18.1268 2.48828 18.1268 2.69987H18.1353Z" fill="white"/>
</svg>
