<svg width="20" height="17" viewBox="0 0 20 17" fill="none" xmlns="http://www.w3.org/2000/svg">
<path d="M2.05729 12.3137L2.10775 3.56189H1.09863V14.6976C2.48535 14.3471 3.87695 14.124 5.27832 14.1144C6.57227 14.1064 7.86621 14.2833 9.16341 14.7136C8.35775 14.0746 7.45931 13.6045 6.50065 13.2985C5.29297 12.9129 3.98763 12.7854 2.64974 12.8969C2.34701 12.9208 2.08333 12.7009 2.05729 12.4061C2.05404 12.3742 2.05404 12.344 2.05729 12.3137ZM16.8652 3.10454C16.862 3.07905 16.8587 3.05196 16.8587 3.02327C16.8587 2.99618 16.8604 2.96909 16.8652 2.942V1.16997C15.5957 1.05205 14.2871 1.18909 13.1445 1.61298C12.0768 2.00977 11.1556 2.66154 10.5566 3.59536V13.6889C11.4876 13.0802 12.4398 12.5798 13.418 12.2388C14.5329 11.85 15.6787 11.6651 16.8652 11.7575V3.10454ZM17.9639 2.48624H19.4515C19.7542 2.48624 20 2.72687 20 3.02327V15.3988C20 15.6952 19.7542 15.9358 19.4515 15.9358C19.3896 15.9358 19.3294 15.9263 19.2741 15.9071C17.7441 15.4785 16.224 15.1932 14.7184 15.1837C13.2503 15.1741 11.7839 15.4275 10.3109 16.0633C10.2197 16.1223 10.1107 16.1541 9.99837 16.1526C9.8877 16.1541 9.77865 16.1223 9.68587 16.0633C8.21452 15.4259 6.74642 15.1741 5.27832 15.1837C3.77279 15.1932 2.25423 15.4785 0.722656 15.9071C0.667318 15.9263 0.607096 15.9358 0.545247 15.9358C0.245768 15.9374 0 15.6968 0 15.4004V3.02327C0 2.72687 0.245768 2.48624 0.548503 2.48624H2.11263L2.1224 0.691904C2.12402 0.433749 2.30957 0.220212 2.55859 0.169219C4.00228 -0.125589 5.75684 -0.0522851 7.29492 0.524581C8.35775 0.922969 9.32292 1.5588 10.0277 2.47668C10.7389 1.62095 11.6895 1.00583 12.7588 0.609039C14.2204 0.0656377 15.9066 -0.0650336 17.4935 0.162844C17.7669 0.20109 17.9622 0.432155 17.9622 0.693498V2.48624H17.9639ZM11.0889 14.6323C12.3014 14.2594 13.5124 14.1064 14.7233 14.1128C16.1247 14.1208 17.5163 14.3455 18.903 14.696V3.56189H17.9639V12.3615C17.9639 12.6579 17.7181 12.8985 17.4154 12.8985C17.3714 12.8985 17.3291 12.8937 17.2884 12.8842C16.0872 12.6993 14.9235 12.8523 13.7874 13.2491C12.8727 13.5694 11.9743 14.0475 11.0889 14.6323ZM9.45964 13.5853V3.57942C8.88509 2.58664 7.95573 1.92213 6.90592 1.52852C5.71615 1.08232 4.37988 0.981931 3.21452 1.14447L3.15267 11.791C4.42383 11.7464 5.66732 11.9041 6.83756 12.2786C7.76855 12.575 8.65072 13.0101 9.45964 13.5853Z" fill="white"/>
</svg>
