<svg width="25" height="17" viewBox="0 0 25 17" fill="none" xmlns="http://www.w3.org/2000/svg">
<path d="M12.4116 10.0184C12.9395 10.0184 13.4395 10.1416 13.8857 10.3619C13.7031 10.5101 13.5337 10.6523 13.3755 10.7895C13.0667 10.6745 12.7406 10.6159 12.4121 10.6163C11.6333 10.6163 10.9277 10.9403 10.4175 11.464C9.90674 11.9873 9.59131 12.7103 9.59131 13.509C9.59131 14.3081 9.90674 15.0312 10.4175 15.5544C10.9282 16.0782 11.6333 16.4021 12.4121 16.4021C13.1914 16.4021 13.8965 16.0782 14.4067 15.5544C14.9175 15.0312 15.2334 14.3081 15.2334 13.509C15.2334 13.3192 15.2153 13.1329 15.1812 12.9537C15.3276 12.7579 15.4775 12.5626 15.6304 12.3693C15.751 12.7263 15.8159 13.1099 15.8159 13.509C15.8159 14.4729 15.4351 15.3461 14.8193 15.9775C14.2031 16.6089 13.3521 17 12.4121 17C11.4722 17 10.6211 16.6089 10.0054 15.9775C9.38867 15.3461 9.00781 14.4729 9.00781 13.509C9.00781 12.5456 9.38867 11.6728 10.0044 11.0409C10.6206 10.4095 11.4717 10.0184 12.4116 10.0184ZM11.085 7.89335C10.7437 7.5814 10.3149 7.31302 10.2568 6.66608L10.2202 6.66658C10.1357 6.66558 10.0542 6.64555 9.97754 6.60049C9.85547 6.52939 9.76904 6.40671 9.71143 6.26851C9.58838 5.97909 9.49072 5.21599 9.80078 4.99817L9.74268 4.95862L9.73584 4.87399C9.72412 4.72077 9.72119 4.53501 9.71777 4.33972C9.70654 3.62269 9.69287 2.75393 9.13037 2.57968L8.88916 2.50458L9.04785 2.30328C9.50244 1.72745 9.97705 1.22423 10.4556 0.837168C10.9976 0.400538 11.5479 0.109618 12.0864 0.0249954C12.6396 -0.0606282 13.1768 0.0695598 13.6719 0.480153C13.8179 0.601327 13.96 0.747038 14.0972 0.917784C14.626 0.97036 15.0576 1.26228 15.3662 1.67888C15.5508 1.92774 15.6904 2.22167 15.7798 2.53462C15.8682 2.84607 15.9072 3.17755 15.8906 3.50402C15.8608 4.08836 15.6519 4.65969 15.2319 5.07579C15.3062 5.07879 15.3755 5.09632 15.437 5.12986C15.6714 5.25855 15.6792 5.53795 15.6177 5.77179C15.5533 5.97856 15.4828 6.18329 15.4062 6.38568C15.3179 6.64305 15.1875 6.69112 14.9375 6.66358C14.9248 7.29299 14.4766 7.55036 14.0933 7.91739C15.0298 9.71198 19.0034 8.52827 19.0034 12.0949H19.0029V13.5796H16.894C16.895 13.544 16.895 13.5085 16.895 13.4724C16.895 11.0309 14.9648 9.05103 12.584 9.05103C10.2026 9.05103 8.27246 11.0309 8.27246 13.4724C8.27246 13.5085 8.27295 13.544 8.27344 13.5796H6.16406V12.0949C6.16406 8.52827 10.0464 9.75905 11.0908 7.89486L11.085 7.89335ZM4.20898 9.55876C4.15538 9.49976 4.10563 9.43721 4.06006 9.37149C3.95068 9.21676 3.84717 9.05553 3.74756 8.8938L3.25244 8.08513C3.06445 7.80372 2.96582 7.54735 2.96582 7.34406C2.96582 7.14077 3.07813 6.87538 3.30176 6.8163C3.28418 6.51236 3.27246 6.20291 3.27246 5.89747C3.27246 5.71621 3.27588 5.53345 3.28223 5.35419C3.29199 5.24052 3.3125 5.12786 3.3418 5.0187C3.47949 4.55854 3.77979 4.16748 4.18359 3.92212C4.32666 3.82999 4.47998 3.75438 4.64062 3.6988C4.92822 3.58714 4.78906 3.13649 5.10645 3.12998C5.84717 3.11045 7.06494 3.76039 7.54004 4.28765C7.84265 4.63094 8.0149 5.07431 8.02539 5.53695L7.99512 6.86737C8.12695 6.89992 8.22998 7.00557 8.2627 7.14077C8.30176 7.3035 8.2627 7.52683 8.12402 7.84128C8.12402 7.85179 8.11377 7.85179 8.11377 7.86181L7.69092 8.57684C6.38916 9.04502 5.27148 9.82114 5.27148 12.0949C5.27148 12.3142 5.22217 12.8926 5.20654 13.4769H0C0 10.445 3.17773 11.4079 4.25732 9.88473C4.38184 9.69746 4.34863 9.71148 4.20898 9.55876ZM17.4917 8.57934L17.3047 8.2729C17.1226 8.00201 17.0273 7.75415 17.0273 7.55787C17.0273 7.36159 17.1362 7.10572 17.3521 7.04864C17.335 6.75521 17.3237 6.45678 17.3237 6.16185C17.3237 5.9871 17.3267 5.81085 17.333 5.6376C17.3428 5.52794 17.3623 5.41928 17.3906 5.31363C17.5234 4.86999 17.8135 4.49244 18.2031 4.2556C18.3408 4.16647 18.4893 4.09387 18.644 4.03979C18.9214 3.93214 18.7876 3.49751 19.0938 3.491C19.8086 3.47197 20.9839 4.09938 21.4424 4.60861C21.7345 4.93969 21.9007 5.36749 21.9106 5.81385L21.8813 7.09771C21.9438 7.11332 22.0009 7.14617 22.0464 7.19268C22.0919 7.2392 22.1242 7.29761 22.1396 7.36159C22.1777 7.51931 22.1396 7.73412 22.0059 8.03806C22.0059 8.04808 21.9961 8.04808 21.9961 8.05809L21.4512 8.97942C21.3276 9.18722 21.1997 9.39953 21.0562 9.59481C20.8857 9.82815 20.7456 9.78659 20.8911 10.0099C21.9341 11.4805 25 10.5527 25 13.4769H19.9746C19.9517 12.8916 19.8965 12.3132 19.8965 12.0949C19.8965 9.84868 18.7827 9.05203 17.4917 8.57934ZM10.8257 12.9356L11.6562 12.9246L11.7183 12.9411C11.8856 13.0399 12.044 13.1538 12.1914 13.2816C12.2979 13.3738 12.3994 13.4749 12.4961 13.5841C12.7939 13.0924 13.1113 12.6412 13.4468 12.2261C13.8049 11.7822 14.1948 11.3662 14.6133 10.9818L14.6943 10.9498H15.6006L15.4175 11.1576C14.856 11.7975 14.3467 12.4589 13.8862 13.1409C13.43 13.8173 13.0164 14.523 12.6479 15.2535L12.5342 15.4788L12.4297 15.2495C12.2363 14.8239 12.0049 14.4338 11.729 14.0853C11.4531 13.7363 11.1323 13.4268 10.7583 13.1635L10.8257 12.9356Z" fill="white"/>
</svg>
