<svg width="20" height="20" viewBox="0 0 20 20" fill="none" xmlns="http://www.w3.org/2000/svg">
<mask id="mask0_330_4343" style="mask-type:luminance" maskUnits="userSpaceOnUse" x="0" y="0" width="20" height="20">
<path d="M0 0H20V20H0V0Z" fill="white"/>
</mask>
<g mask="url(#mask0_330_4343)">
<mask id="mask1_330_4343" style="mask-type:luminance" maskUnits="userSpaceOnUse" x="0" y="0" width="20" height="20">
<path d="M0 0H20V20H0V0Z" fill="white"/>
</mask>
<g mask="url(#mask1_330_4343)">
<path d="M1.875 12.8125C1.875 12.2947 2.29473 11.875 2.8125 11.875H4.0625C4.58027 11.875 5 12.2947 5 12.8125V18.4375C5 18.9553 4.58027 19.375 4.0625 19.375H2.8125C2.29473 19.375 1.875 18.9553 1.875 18.4375V12.8125ZM2.8125 13.125C2.98509 13.125 3.125 12.9851 3.125 12.8125V18.4375C3.125 18.2649 2.98509 18.125 2.8125 18.125H4.0625C3.88991 18.125 3.75 18.2649 3.75 18.4375V12.8125C3.75 12.9851 3.88991 13.125 4.0625 13.125H2.8125Z" fill="white"/>
<path d="M10.625 9.0625C10.625 8.54473 11.0447 8.125 11.5625 8.125H12.8125C13.3303 8.125 13.75 8.54473 13.75 9.0625V18.4375C13.75 18.9553 13.3303 19.375 12.8125 19.375H11.5625C11.0447 19.375 10.625 18.9553 10.625 18.4375V9.0625ZM11.5625 9.375C11.7351 9.375 11.875 9.23509 11.875 9.0625V18.4375C11.875 18.2649 11.7351 18.125 11.5625 18.125H12.8125C12.6399 18.125 12.5 18.2649 12.5 18.4375V9.0625C12.5 9.23509 12.6399 9.375 12.8125 9.375H11.5625Z" fill="white"/>
<path d="M15 4.6875C15 4.16973 15.4197 3.75 15.9375 3.75H17.1875C17.7053 3.75 18.125 4.16973 18.125 4.6875V18.4375C18.125 18.9553 17.7053 19.375 17.1875 19.375H15.9375C15.4197 19.375 15 18.9553 15 18.4375V4.6875ZM15.9375 5C16.1101 5 16.25 4.86009 16.25 4.6875V18.4375C16.25 18.2649 16.1101 18.125 15.9375 18.125H17.1875C17.0149 18.125 16.875 18.2649 16.875 18.4375V4.6875C16.875 4.86009 17.0149 5 17.1875 5H15.9375Z" fill="white"/>
<path d="M6.25 1.5625C6.25 1.04473 6.66973 0.625 7.1875 0.625H8.4375C8.95527 0.625 9.375 1.04473 9.375 1.5625V18.4375C9.375 18.9553 8.95527 19.375 8.4375 19.375H7.1875C6.66973 19.375 6.25 18.9553 6.25 18.4375V1.5625ZM7.1875 1.875C7.36009 1.875 7.5 1.73509 7.5 1.5625V18.4375C7.5 18.2649 7.36009 18.125 7.1875 18.125H8.4375C8.26491 18.125 8.125 18.2649 8.125 18.4375V1.5625C8.125 1.73509 8.26491 1.875 8.4375 1.875H7.1875Z" fill="white"/>
</g>
</g>
</svg>
