<svg width="20" height="20" viewBox="0 0 20 20" fill="none" xmlns="http://www.w3.org/2000/svg">
<mask id="mask0_330_4290" style="mask-type:luminance" maskUnits="userSpaceOnUse" x="0" y="0" width="20" height="20">
<path d="M0 0H20V20H0V0Z" fill="white"/>
</mask>
<g mask="url(#mask0_330_4290)">
<mask id="mask1_330_4290" style="mask-type:luminance" maskUnits="userSpaceOnUse" x="0" y="0" width="20" height="20">
<path d="M0 0H20V20H0V0Z" fill="white"/>
</mask>
<g mask="url(#mask1_330_4290)">
<path d="M1.25 5C1.25 3.61929 2.36929 2.5 3.75 2.5H16.25C17.6307 2.5 18.75 3.61929 18.75 5V16.25C18.75 17.6307 17.6307 18.75 16.25 18.75H3.75C2.36929 18.75 1.25 17.6307 1.25 16.25V5ZM3.75 3.75C3.05964 3.75 2.5 4.30964 2.5 5V16.25C2.5 16.9404 3.05964 17.5 3.75 17.5H16.25C16.9404 17.5 17.5 16.9404 17.5 16.25V5C17.5 4.30964 16.9404 3.75 16.25 3.75H3.75Z" fill="white"/>
<path d="M11.5625 8.125C12.0803 8.125 12.5 8.54473 12.5 9.0625C12.5 9.58027 12.0803 10 11.5625 10C11.0447 10 10.625 9.58027 10.625 9.0625C10.625 8.54473 11.0447 8.125 11.5625 8.125Z" fill="white"/>
<path d="M14.6875 8.125C15.2053 8.125 15.625 8.54473 15.625 9.0625C15.625 9.58027 15.2053 10 14.6875 10C14.1697 10 13.75 9.58027 13.75 9.0625C13.75 8.54473 14.1697 8.125 14.6875 8.125Z" fill="white"/>
<path d="M11.5625 11.25C12.0803 11.25 12.5 11.6697 12.5 12.1875C12.5 12.7053 12.0803 13.125 11.5625 13.125C11.0447 13.125 10.625 12.7053 10.625 12.1875C10.625 11.6697 11.0447 11.25 11.5625 11.25Z" fill="white"/>
<path d="M14.6875 11.25C15.2053 11.25 15.625 11.6697 15.625 12.1875C15.625 12.7053 15.2053 13.125 14.6875 13.125C14.1697 13.125 13.75 12.7053 13.75 12.1875C13.75 11.6697 14.1697 11.25 14.6875 11.25Z" fill="white"/>
<path d="M5.3125 11.25C5.83027 11.25 6.25 11.6697 6.25 12.1875C6.25 12.7053 5.83027 13.125 5.3125 13.125C4.79473 13.125 4.375 12.7053 4.375 12.1875C4.375 11.6697 4.79473 11.25 5.3125 11.25Z" fill="white"/>
<path d="M8.4375 11.25C8.95527 11.25 9.375 11.6697 9.375 12.1875C9.375 12.7053 8.95527 13.125 8.4375 13.125C7.91973 13.125 7.5 12.7053 7.5 12.1875C7.5 11.6697 7.91973 11.25 8.4375 11.25Z" fill="white"/>
<path d="M5.3125 14.375C5.83027 14.375 6.25 14.7947 6.25 15.3125C6.25 15.8303 5.83027 16.25 5.3125 16.25C4.79473 16.25 4.375 15.8303 4.375 15.3125C4.375 14.7947 4.79473 14.375 5.3125 14.375Z" fill="white"/>
<path d="M8.4375 14.375C8.95527 14.375 9.375 14.7947 9.375 15.3125C9.375 15.8303 8.95527 16.25 8.4375 16.25C7.91973 16.25 7.5 15.8303 7.5 15.3125C7.5 14.7947 7.91973 14.375 8.4375 14.375Z" fill="white"/>
<path d="M11.5625 14.375C12.0803 14.375 12.5 14.7947 12.5 15.3125C12.5 15.8303 12.0803 16.25 11.5625 16.25C11.0447 16.25 10.625 15.8303 10.625 15.3125C10.625 14.7947 11.0447 14.375 11.5625 14.375Z" fill="white"/>
<path fill-rule="evenodd" clip-rule="evenodd" d="M5 1.25C4.65483 1.25 4.375 1.52983 4.375 1.875V3.125C4.375 3.47018 4.65483 3.75 5 3.75C5.34518 3.75 5.625 3.47018 5.625 3.125V1.875C5.625 1.52983 5.34518 1.25 5 1.25ZM15 1.25C14.6548 1.25 14.375 1.52983 14.375 1.875V3.125C14.375 3.47018 14.6548 3.75 15 3.75C15.3452 3.75 15.625 3.47018 15.625 3.125V1.875C15.625 1.52983 15.3452 1.25 15 1.25Z" fill="white"/>
<path d="M18.125 6.875H1.875V5.625H18.125V6.875Z" fill="white"/>
</g>
</g>
</svg>
