<svg width="89" height="123" viewBox="0 0 89 123" fill="none" xmlns="http://www.w3.org/2000/svg">
<path d="M16.372 0.635197C17.1577 0.818686 17.9199 1.07745 18.6538 1.4115C19.3925 1.74554 20.0841 2.14545 20.7428 2.61594C21.3967 3.08642 21.999 3.61807 22.5541 4.20618C23.1046 4.79899 23.5939 5.43414 24.0173 6.12105C24.4455 6.80796 24.7984 7.5278 25.0806 8.28057C25.3676 9.03805 25.5747 9.81435 25.7064 10.6095C25.8334 11.4046 25.8852 12.2091 25.8616 13.0136C25.8334 13.8229 25.7299 14.618 25.5417 15.4037C25.3582 16.1894 25.0995 16.9516 24.7654 17.6856C24.4361 18.4195 24.0315 19.1158 23.561 19.7698C23.0905 20.4285 22.5588 21.0307 21.9707 21.5812C21.3826 22.1316 20.7428 22.6209 20.0559 23.0491C19.3737 23.4725 18.6538 23.8301 17.8963 24.1124C17.1389 24.3947 16.3626 24.6017 15.5674 24.7334C14.7723 24.8652 13.9678 24.9169 13.1633 24.8887C12.354 24.8652 11.5589 24.7569 10.7732 24.5735C9.9875 24.39 9.22531 24.1312 8.49135 23.7972C7.7574 23.4631 7.06108 23.0632 6.40711 22.5927C5.74843 22.1222 5.14621 21.5906 4.59574 21.0025C4.04527 20.4097 3.55597 19.7745 3.12783 19.0876C2.70439 18.4007 2.35153 17.6809 2.06453 16.9281C1.78224 16.1706 1.57523 15.3943 1.44349 14.5992C1.31176 13.7994 1.26001 12.9995 1.28823 12.195C1.31646 11.3858 1.41997 10.5907 1.60346 9.80494C1.78695 9.01923 2.04572 8.25705 2.37976 7.52309C2.7138 6.78914 3.11842 6.09282 3.5889 5.43885C4.05939 4.78017 4.58633 4.17795 5.17914 3.62748C5.76725 3.07231 6.4024 2.58771 7.08931 2.15957C7.77622 1.73613 8.49606 1.37856 9.25354 1.09627C10.0063 0.813981 10.7826 0.606968 11.5824 0.475232C12.3776 0.343496 13.1774 0.291744 13.9866 0.319972C14.7911 0.343496 15.5863 0.451708 16.372 0.635197Z" fill="#00BF63"/>
<mask id="mask0_1962_3477" style="mask-type:luminance" maskUnits="userSpaceOnUse" x="0" y="0" width="89" height="88">
<path d="M0.513428 0H88.4376V87.6042H0.513428V0Z" fill="white"/>
</mask>
<g mask="url(#mask0_1962_3477)">
<path fill-rule="evenodd" clip-rule="evenodd" d="M13.7485 87.3084C12.5253 87.3272 11.3255 87.1672 10.1493 86.8285C8.9778 86.4897 7.87686 85.9863 6.85121 85.3182C5.83026 84.6501 4.92222 83.8456 4.14122 82.9094C3.35551 81.9731 2.72506 80.938 2.24987 79.8136C1.76997 78.6891 1.46886 77.5176 1.34654 76.299C1.21951 75.0852 1.27126 73.8761 1.5065 72.6763C1.74174 71.4766 2.14636 70.3333 2.72035 69.2559C3.29905 68.1785 4.01889 67.2046 4.88458 66.3436L67.3085 3.91028C67.8778 3.33629 68.4988 2.82346 69.1716 2.3718C69.8444 1.92013 70.5501 1.53904 71.2982 1.22382C72.0463 0.913296 72.8179 0.678054 73.6083 0.51809C74.4034 0.358124 75.2032 0.278143 76.0125 0.273438C76.8217 0.273438 77.6262 0.348714 78.4166 0.50868C79.2117 0.663939 79.9833 0.894478 80.7314 1.205C81.4795 1.51552 82.1899 1.8919 82.8627 2.34357C83.5355 2.79053 84.1612 3.30336 84.7305 3.87264C85.3045 4.44664 85.8174 5.06768 86.2643 5.74047C86.716 6.41797 87.0924 7.1284 87.4029 7.87647C87.7134 8.62454 87.9439 9.39143 88.0992 10.1865C88.2592 10.9817 88.3344 11.7815 88.3344 12.5907C88.3297 13.4 88.2498 14.2045 88.0898 14.9949C87.9298 15.79 87.6946 16.5616 87.3841 17.305C87.0688 18.053 86.6878 18.7635 86.2361 19.4363C85.7844 20.1044 85.2716 20.7254 84.6976 21.2947L43.2526 62.7397H76.003C76.8076 62.7397 77.6074 62.8197 78.4025 62.9749C79.1929 63.1349 79.9598 63.3654 80.7079 63.6759C81.4513 63.9865 82.1617 64.3629 82.8298 64.8098C83.5026 65.2615 84.1236 65.7696 84.6929 66.3389C85.2669 66.9129 85.775 67.5292 86.222 68.202C86.6736 68.8748 87.05 69.5805 87.3605 70.3286C87.6664 71.072 87.9016 71.8436 88.0569 72.634C88.2168 73.4244 88.2968 74.2242 88.2968 75.0334C88.2968 75.838 88.2168 76.6378 88.0569 77.4282C87.9016 78.2233 87.6664 78.9902 87.3605 79.7383C87.05 80.4817 86.6736 81.1921 86.222 81.8602C85.775 82.533 85.2669 83.154 84.6929 83.7233C84.1236 84.2926 83.5026 84.8054 82.8298 85.2524C82.1617 85.6993 81.4513 86.0804 80.7079 86.3862C79.9598 86.6968 79.1929 86.932 78.4025 87.0873C77.6074 87.2472 76.8076 87.3225 76.003 87.3225L13.7485 87.3084Z" fill="#00BF63"/>
</g>
<path d="M12.9854 118.315C13.6488 118.315 14.1334 118.399 14.4345 118.559C14.7356 118.724 14.9426 118.964 15.0555 119.274C15.1684 119.576 15.2249 119.966 15.2249 120.441C15.2249 120.921 15.1778 121.307 15.0931 121.608C15.0038 121.9 14.8955 122.116 14.7732 122.267C14.6603 122.417 14.4815 122.53 14.2463 122.605C13.9687 122.704 13.5358 122.756 12.9477 122.756H2.25833C1.86782 122.756 1.49144 122.652 1.12916 122.436C0.376388 122.013 0 121.34 0 120.422C0 119.971 0.0988015 119.608 0.30111 119.331L8.26171 108.322H2.37124C1.95722 108.322 1.6467 108.312 1.44909 108.284C1.24678 108.26 1.01625 108.19 0.752775 108.077C0.249357 107.828 0 107.183 0 106.138C0 105.047 0.230537 104.384 0.696317 104.144C0.945674 104.007 1.17151 103.927 1.37382 103.899C1.57142 103.875 1.87253 103.861 2.27715 103.861H12.609C12.9948 103.861 13.3665 103.97 13.7193 104.181C14.0816 104.384 14.3639 104.652 14.5662 104.99C14.7638 105.329 14.8673 105.734 14.8673 106.195C14.8673 106.661 14.7591 107.032 14.5474 107.305L6.6056 118.315H12.9854Z" fill="#00BF63"/>
<path d="M19.7029 106.139C19.7029 105.753 19.7123 105.457 19.7405 105.255C19.764 105.057 19.844 104.831 19.9852 104.577C20.2204 104.116 20.8885 103.881 21.98 103.881C23.1704 103.881 23.8808 104.201 24.1066 104.841C24.1913 105.132 24.2384 105.575 24.2384 106.177V120.442C24.2384 120.856 24.2242 121.157 24.2007 121.345C24.1725 121.533 24.0925 121.755 23.9561 122.004C23.7161 122.47 23.0527 122.7 21.9612 122.7C20.7568 122.7 20.051 122.376 19.8534 121.722C19.7499 121.449 19.7029 121.016 19.7029 120.423V106.139Z" fill="#00BF63"/>
<path d="M33.634 118.899H40.616C41.1806 118.899 41.5852 118.969 41.8392 119.106C42.1027 119.233 42.2768 119.435 42.3662 119.708C42.4509 119.971 42.4979 120.338 42.4979 120.799C42.4979 121.251 42.4509 121.618 42.3662 121.891C42.2768 122.154 42.1309 122.338 41.9333 122.437C41.604 122.616 41.1617 122.7 40.5972 122.7H31.3568C30.1524 122.7 29.4467 122.376 29.2491 121.722C29.1456 121.449 29.0985 121.016 29.0985 120.423V106.139C29.0985 105.753 29.1079 105.457 29.1361 105.255C29.1597 105.057 29.2397 104.831 29.3808 104.577C29.616 104.116 30.2841 103.881 31.3757 103.881C32.566 103.881 33.2764 104.201 33.5022 104.841C33.5869 105.132 33.634 105.575 33.634 106.177V118.899Z" fill="#00BF63"/>
<path d="M55.7949 103.655C58.3261 103.655 60.5232 104.573 62.3816 106.403C64.2495 108.238 65.1857 110.506 65.1857 113.216C65.1857 115.926 64.2918 118.236 62.5134 120.141C60.7302 122.051 58.5425 123.002 55.9454 123.002C53.3483 123.002 51.1324 122.061 49.3022 120.179C47.4814 118.297 46.5734 116.057 46.5734 113.46C46.5734 112.044 46.8274 110.713 47.345 109.47C47.8578 108.228 48.54 107.189 49.3963 106.346C50.2478 105.509 51.2312 104.85 52.3509 104.37C53.466 103.895 54.6139 103.655 55.7949 103.655ZM51.1277 113.347C51.1277 114.867 51.617 116.104 52.5956 117.055C53.5742 117.996 54.6704 118.466 55.889 118.466C57.1028 118.466 58.2037 118.01 59.1824 117.092C60.161 116.165 60.6503 114.923 60.6503 113.366C60.6503 111.799 60.1516 110.543 59.1635 109.602C58.1849 108.661 57.084 108.191 55.8701 108.191C54.6516 108.191 53.5554 108.671 52.5767 109.621C51.6076 110.576 51.1277 111.818 51.1277 113.347Z" fill="#00BF63"/>
<path d="M78.4921 103.651C81.0233 103.651 83.2205 104.569 85.0789 106.399C86.9467 108.234 87.883 110.502 87.883 113.212C87.883 115.922 86.9891 118.232 85.2106 120.137C83.4275 122.047 81.2398 122.998 78.6427 122.998C76.0456 122.998 73.8296 122.057 71.9994 120.175C70.1787 118.293 69.2706 116.053 69.2706 113.456C69.2706 112.04 69.5247 110.709 70.0422 109.467C70.5551 108.224 71.2373 107.185 72.0935 106.343C72.9451 105.505 73.9284 104.846 75.0482 104.367C76.1632 103.891 77.3112 103.651 78.4921 103.651ZM73.8249 113.343C73.8249 114.863 74.3142 116.1 75.2928 117.051C76.2714 117.992 77.3677 118.462 78.5862 118.462C79.8001 118.462 80.901 118.006 81.8796 117.088C82.8582 116.162 83.3475 114.919 83.3475 113.362C83.3475 111.795 82.8488 110.539 81.8608 109.598C80.8822 108.657 79.7813 108.187 78.5674 108.187C77.3489 108.187 76.2526 108.667 75.274 109.617C74.3048 110.572 73.8249 111.814 73.8249 113.343Z" fill="#00BF63"/>
</svg>
