<svg width="29" height="30" viewBox="0 0 29 30" fill="none" xmlns="http://www.w3.org/2000/svg">
<path d="M20.6389 12.025C20.9539 12.025 21.2098 12.2987 21.2098 12.6362C21.2098 12.9741 20.9539 13.2478 20.6389 13.2478C20.3234 13.2478 20.0679 12.9741 20.0679 12.6362C20.0679 12.2987 20.3234 12.025 20.6389 12.025ZM21.3359 15.9199C21.3069 15.8982 21.282 15.8707 21.2629 15.8388C21.2438 15.8069 21.2307 15.7713 21.2245 15.734C21.2182 15.6967 21.2188 15.6584 21.2264 15.6214C21.2339 15.5843 21.2482 15.5492 21.2684 15.5181C21.3533 15.3871 21.5216 15.3549 21.6439 15.4458C21.9176 15.6502 22.1867 15.7511 22.4497 15.7506C22.7136 15.7501 22.9831 15.6482 23.2569 15.4458C23.3792 15.3554 23.547 15.3881 23.6309 15.5191C23.651 15.5502 23.6652 15.5853 23.6726 15.6223C23.6801 15.6593 23.6806 15.6975 23.6743 15.7347C23.6679 15.7719 23.6548 15.8074 23.6356 15.8392C23.6164 15.871 23.5916 15.8984 23.5625 15.9199C23.1969 16.1895 22.8261 16.3261 22.4497 16.3266C22.0733 16.3271 21.7016 16.1925 21.3359 15.9199ZM24.3856 12.025C24.7006 12.025 24.9561 12.2987 24.9561 12.6362C24.9561 12.9741 24.7006 13.2478 24.3856 13.2478C24.0702 13.2478 23.8147 12.9741 23.8147 12.6362C23.8147 12.2987 24.0702 12.025 24.3856 12.025ZM17.0862 23C17.5442 21.2359 18.147 20.7016 19.3737 19.6154C19.5593 19.4506 19.76 19.2729 19.9526 19.0981C19.9564 19.0946 19.9606 19.0916 19.9644 19.0881C20.0075 19.0283 20.037 18.9886 20.0647 18.9505C20.2076 18.7556 20.3262 18.5944 20.4214 18.3795C19.8172 18.033 19.2547 17.5143 18.7737 16.8117C18.4132 16.9086 18.1076 16.9945 17.8517 17.0658C17.6032 17.1356 17.3998 17.1929 17.2526 17.2305C17.1673 17.2521 17.1059 17.2727 17.0187 17.2361C16.9179 17.1929 16.8467 17.0854 16.8495 16.9614L17.0037 10.5521C17.0037 10.5416 17.0037 10.531 17.0046 10.5205C17.0431 10.1077 17.1303 9.71049 17.2606 9.32683C17.3914 8.94267 17.5643 8.57407 17.7743 8.22004C18.3448 7.25888 19.0554 6.57492 19.8922 6.13753C20.7228 5.70315 21.6739 5.51534 22.7305 5.54346C23.6384 5.56706 24.5178 5.80861 25.3002 6.28919C26.031 6.73813 26.6769 7.39547 27.1808 8.27829C27.3669 8.60421 27.5272 8.94669 27.6627 9.30524C27.7958 9.65776 27.9041 10.0238 27.9889 10.403C27.996 10.4291 27.9997 10.4567 27.9997 10.4853L27.9993 16.6375C27.9993 16.7279 28.0082 16.8117 27.9641 16.8931C27.8741 17.0603 27.6318 17.101 27.5099 16.9152C27.388 16.7294 27.23 16.5732 27.0435 16.4431C26.9024 16.3447 26.7435 16.2608 26.57 16.189C26.0117 17.1617 25.2814 17.8889 24.4738 18.3464C24.5464 18.5713 24.6472 18.7421 24.7724 18.9535L24.8263 19.0449C25.2514 19.2513 25.6667 19.5144 26.0586 19.9021C26.465 20.3038 26.8433 20.8346 27.1766 21.5678C27.3903 22.0373 27.5521 22.5159 27.688 23H27.1236C27.0046 22.5978 26.8658 22.2036 26.6919 21.8209C26.39 21.157 26.053 20.6815 25.6939 20.3264C25.3949 20.0312 25.0775 19.8162 24.7503 19.6445C24.5497 19.9126 24.3108 20.1451 24.0425 20.3335C23.5414 20.685 22.9573 20.8668 22.3742 20.8683C21.7897 20.8698 21.2061 20.69 20.7078 20.3194C20.6111 20.2472 20.5186 20.1687 20.4308 20.0844C20.3096 19.9743 20.1958 19.8552 20.0904 19.7278C19.955 19.8494 19.8331 19.9573 19.7173 20.0603C18.6242 21.028 18.065 21.5236 17.6492 23H17.0862ZM23.803 17.7302C23.8644 17.7006 23.9263 17.6694 23.9891 17.6368C23.997 17.6328 24.0055 17.6293 24.0134 17.6257C24.9303 17.1346 25.7399 16.2292 26.2499 14.9833C26.4289 14.5454 26.5114 14.1457 26.5457 13.75C26.6525 12.5277 26.5541 11.4289 26.5541 10.1599C25.6171 10.3146 25.2266 9.6427 25.0541 8.64137C23.1392 10.5115 20.9089 10.9237 18.4095 10.0967C18.4095 11.3526 18.3162 12.375 18.4081 13.5898C18.4357 13.9569 18.5032 14.328 18.6495 14.7393C19.7318 17.7769 21.9514 18.5814 23.803 17.7302ZM20.9136 18.621C20.7992 18.8832 20.659 19.075 20.4898 19.3055C20.5846 19.4384 20.6914 19.561 20.8086 19.6716C20.8287 19.6892 20.8494 19.7067 20.87 19.7238C21.312 20.0899 21.8305 20.2792 22.3489 20.2878C22.8664 20.2958 23.3863 20.1236 23.832 19.767C24.0074 19.6264 24.1714 19.4587 24.3181 19.2623L24.3172 19.2608C24.1789 19.0268 24.0655 18.8345 23.9797 18.5889C22.9855 19.0037 21.9097 19.0283 20.9136 18.621ZM15.1409 23C15.0902 22.7881 15.0312 22.5993 14.9642 22.43C14.5812 21.4634 13.6268 21.0229 12.6902 20.5906C12.5318 20.5173 12.3738 20.4444 12.2079 20.3636C12.1868 20.3922 12.1652 20.4203 12.1432 20.448C12.0148 20.6167 11.8638 20.7668 11.696 20.8969C11.2305 21.258 10.6296 21.4654 10.0104 21.498C9.39348 21.5301 8.75457 21.3895 8.20941 21.0546C7.93847 20.8879 7.6905 20.6739 7.47909 20.4093C7.32956 20.4861 7.1744 20.5614 7.01643 20.6388C6.11642 21.0787 5.10157 21.5743 4.73032 22.4019C4.64876 22.5842 4.5836 22.7836 4.53485 23H4C4.00469 22.9749 4.00984 22.9498 4.01547 22.9247C4.07359 22.6505 4.15516 22.3954 4.26016 22.1609C4.71391 21.15 5.8197 20.6097 6.79987 20.1306C7.01737 20.0246 7.22925 19.9212 7.41862 19.8197C7.548 19.6379 7.65394 19.4416 7.73644 19.2312C7.80675 19.0514 7.85972 18.8616 7.89441 18.6622C7.69268 18.5328 7.50264 18.3835 7.32675 18.2163C6.59127 17.5173 6.07705 16.9468 5.74611 16.2875C5.41001 15.6176 5.26892 14.8743 5.2872 13.8419L5.34017 10.5828C5.34064 10.5506 5.34626 10.52 5.35564 10.4919L4.70594 10.2724C4.61172 8.06889 5.80283 6.75018 7.27706 6.11694C7.81425 5.88594 6.91471 4.62599 8.15035 5.10958C9.80083 5.75588 13.4641 6.6387 14.3309 7.749C15.0354 8.65091 15.0635 9.14103 15.0476 10.3181C15.0429 10.6998 14.9867 11.0357 14.8221 11.1608C14.7471 11.2175 14.6552 11.2411 14.5498 11.2316V14.0583C14.5498 15.4754 14.0773 16.6586 13.3512 17.5349C12.9491 18.0203 12.4644 18.4193 11.9229 18.7104C11.9543 18.8927 11.9983 19.0665 12.0541 19.2322C12.1207 19.4301 12.206 19.6184 12.3091 19.7981C12.4877 19.887 12.6916 19.9814 12.8965 20.0758C13.9282 20.5519 14.9787 21.037 15.4446 22.2131C15.5356 22.4436 15.6138 22.7042 15.6767 23H15.1409ZM8.87176 19.0996C8.7035 19.0526 8.53842 18.9934 8.37769 18.9224C8.33785 19.1041 8.28488 19.2799 8.21878 19.4481C8.13582 19.6605 8.03081 19.8624 7.90472 20.0543C8.04394 20.2195 8.20144 20.3611 8.37254 20.4791C8.83379 20.798 9.38973 20.9486 9.9363 20.9341C10.4796 20.92 11.0112 20.7417 11.4269 20.4053C11.5376 20.3154 11.6393 20.2144 11.7312 20.1025C11.7588 20.0668 11.7846 20.0301 11.8094 19.9925C11.7133 19.8117 11.6313 19.6214 11.5633 19.4205C11.5113 19.2657 11.4686 19.1076 11.4354 18.947C10.9033 19.1508 10.3652 19.2523 9.83739 19.2437C9.50973 19.2387 9.18676 19.191 8.87176 19.0996ZM8.32332 18.2715C8.49582 18.369 8.67254 18.4488 8.85254 18.5116L8.86004 18.5136C9.19286 18.6241 9.53973 18.6773 9.88989 18.6773C10.4496 18.6773 11.0168 18.5412 11.5437 18.2841C12.0838 18.0213 12.5665 17.6402 12.9607 17.1653C13.6062 16.3854 14.0262 15.3288 14.0262 14.0583V11.1994H14.0271C14.021 11.0212 13.9971 10.857 13.9521 10.7088C13.9085 10.5662 13.8462 10.4401 13.7609 10.3332C13.4407 9.93044 13.1365 9.94702 12.7034 9.97062C12.6644 9.97263 12.626 9.97464 12.5702 9.97715C10.8555 10.058 9.73145 10.056 8.82066 9.97062C7.98019 9.89228 7.32018 9.74464 6.55236 9.5272C6.47943 9.71155 6.39404 9.88996 6.29689 10.061C6.1691 10.2865 6.02273 10.4992 5.85955 10.6968L5.80845 13.8504C5.79205 14.7809 5.91392 15.4413 6.20596 16.0223C6.50268 16.6134 6.98174 17.1422 7.67175 17.798C7.85409 17.9707 8.0491 18.1174 8.253 18.2379C8.27832 18.2454 8.30175 18.257 8.32332 18.2715ZM8.74426 16.5641C8.68623 16.5238 8.64554 16.4604 8.63113 16.3879C8.61671 16.3154 8.62975 16.2397 8.66738 16.1775C8.74566 16.0479 8.90738 16.0113 9.02832 16.0951C9.32598 16.3025 9.61098 16.4145 9.88286 16.4185C10.1454 16.422 10.406 16.3226 10.6638 16.1087C10.6909 16.0861 10.7219 16.0695 10.7549 16.0598C10.788 16.05 10.8226 16.0474 10.8566 16.0519C10.8906 16.0565 10.9235 16.0682 10.9533 16.0864C10.9831 16.1046 11.0093 16.1289 11.0304 16.1579C11.0729 16.2166 11.0919 16.291 11.0833 16.3647C11.0747 16.4384 11.0392 16.5054 10.9844 16.5511C10.6301 16.8459 10.2602 16.9825 9.87677 16.9769C9.5013 16.9714 9.12395 16.8288 8.74426 16.5641ZM7.76972 13.058C8.08144 13.058 8.3341 13.3286 8.3341 13.6621C8.3341 13.996 8.08144 14.2667 7.76972 14.2667C7.45847 14.2667 7.20581 13.996 7.20581 13.6621C7.20581 13.3286 7.45847 13.058 7.76972 13.058ZM12.026 13.058C12.3377 13.058 12.5904 13.3286 12.5904 13.6621C12.5904 13.996 12.3377 14.2667 12.026 14.2667C11.7143 14.2667 11.4621 13.996 11.4621 13.6621C11.4621 13.3286 11.7143 13.058 12.026 13.058Z" fill="#333333"/>
</svg>
