<svg width="24" height="24" viewBox="0 0 24 24" fill="none" xmlns="http://www.w3.org/2000/svg">
<circle cx="12" cy="12" r="11.5" fill="#163259" stroke="#163259"/>
<path d="M13.1667 7.49853C13.1667 6.69582 12.5367 6.03906 11.7667 6.03906C10.9967 6.03906 10.3667 6.69582 10.3667 7.49853C10.3667 8.30124 10.9967 8.958 11.7667 8.958C12.5367 8.958 13.1667 8.30124 13.1667 7.49853Z" fill="white"/>
<path d="M13.1667 17.0103C13.1667 16.2075 12.5367 15.5508 11.7667 15.5508C10.9967 15.5508 10.3667 16.2075 10.3667 17.0103C10.3667 17.813 10.9967 18.4697 11.7667 18.4697C12.5367 18.4697 13.1667 17.813 13.1667 17.0103Z" fill="white"/>
<path d="M13.1667 12.2524C13.1667 11.4497 12.5367 10.793 11.7667 10.793C10.9967 10.793 10.3667 11.4497 10.3667 12.2524C10.3667 13.0551 10.9967 13.7119 11.7667 13.7119C12.5367 13.7119 13.1667 13.0551 13.1667 12.2524Z" fill="white"/>
</svg>
