<svg width="29" height="30" viewBox="0 0 29 30" fill="none" xmlns="http://www.w3.org/2000/svg">
<path d="M22.375 12.875C22.375 16.2612 19.435 19 15.8125 19L14.9988 19.98L14.5175 20.5575C14.1063 21.0475 13.3187 20.9425 13.0475 20.3562L11.875 17.775C10.2825 16.655 9.25 14.8787 9.25 12.875C9.25 9.48875 12.19 6.75 15.8125 6.75C18.455 6.75 20.7388 8.21126 21.7625 10.3113C22.1563 11.09 22.375 11.9563 22.375 12.875Z" stroke="#333333" stroke-width="1.5" stroke-linecap="round" stroke-linejoin="round"/>
<path d="M26.7493 16.2525C26.7493 18.2563 25.7168 20.0325 24.1243 21.1525L22.9518 23.7337C22.6805 24.32 21.893 24.4338 21.4818 23.935L20.1868 22.3775C18.0693 22.3775 16.1793 21.4413 14.998 19.98L15.8118 19C19.4343 19 22.3743 16.2613 22.3743 12.875C22.3743 11.9563 22.1555 11.09 21.7618 10.3113C24.623 10.9675 26.7493 13.3825 26.7493 16.2525Z" stroke="#333333" stroke-width="1.5" stroke-linecap="round" stroke-linejoin="round"/>
<path d="M13.625 12.875H18" stroke="#333333" stroke-width="1.5" stroke-linecap="round" stroke-linejoin="round"/>
</svg>
