<svg width="29" height="30" viewBox="0 0 29 30" fill="none" xmlns="http://www.w3.org/2000/svg">
<path d="M19.5796 8.34614C19.5297 8.34614 19.4862 8.33973 19.4428 8.32531C19.2206 8.32531 19.0339 8.14582 19.0339 7.91826V7.11697H15.0689V7.91826C15.0689 8.12499 14.9031 8.30447 14.7019 8.3189C14.6584 8.33332 14.6085 8.33973 14.5586 8.33973H13.0647V9.99838H20.8867V8.33813H19.5651L19.5796 8.34614ZM12.6784 18.3317C13.1227 18.3317 13.4833 18.6907 13.4833 19.133C13.4833 19.5753 13.1227 19.9343 12.6784 19.9343C12.2341 19.9343 11.8735 19.5753 11.8735 19.133C11.8735 18.6907 12.2341 18.3317 12.6784 18.3317ZM11.7479 16.3558C11.6368 16.1907 11.6803 15.9663 11.8477 15.8558C12.0135 15.7452 12.2389 15.7884 12.35 15.9551L12.548 16.2468L13.332 15.2981C13.4591 15.1442 13.6877 15.1218 13.8423 15.2484C13.9968 15.375 14.0193 15.6026 13.8922 15.7564L12.8072 17.0705C12.783 17.1009 12.754 17.1282 12.7202 17.1522C12.5544 17.2628 12.3291 17.2195 12.218 17.0529L11.7479 16.3558ZM11.7479 13.5801C11.6368 13.4151 11.6803 13.1907 11.8477 13.0801C12.0135 12.9695 12.2389 13.0128 12.35 13.1795L12.548 13.4711L13.332 12.5208C13.4591 12.367 13.6877 12.3445 13.8423 12.4711C13.9968 12.5977 14.0193 12.8253 13.8922 12.9792L12.8072 14.2933C12.783 14.3237 12.754 14.3509 12.7202 14.375C12.5544 14.4856 12.3291 14.4423 12.218 14.2756L11.7479 13.5801ZM20.1398 25.8926C20.0674 25.9567 19.9676 26 19.8661 26C19.8452 26 19.8227 26 19.8017 25.9936H9.90471C9.66002 25.9936 9.43143 25.8942 9.26562 25.7292C9.09981 25.5641 9 25.3429 9 25.0913V9.48877C9 9.23877 9.09981 9.01761 9.26562 8.85255C9.43143 8.68749 9.65358 8.58813 9.90471 8.58813H12.2598V8.14422C12.2598 7.97915 12.3242 7.83011 12.4401 7.71473C12.548 7.60736 12.6993 7.53524 12.8716 7.53524H14.2656V6.97915C14.2656 6.79326 14.3445 6.62819 14.4669 6.508C14.5876 6.3862 14.7534 6.30768 14.9402 6.30768H19.1852C19.3719 6.30768 19.5377 6.3862 19.6585 6.508C19.7808 6.62979 19.8597 6.79326 19.8597 6.97915V7.53684H21.1169C21.2828 7.53684 21.4325 7.60896 21.5484 7.71633C21.6562 7.8237 21.7287 7.98076 21.7287 8.14582V8.58973H24.0838C24.3349 8.58973 24.5571 8.68909 24.7229 8.85415C24.8887 9.01922 24.9885 9.24037 24.9885 9.49037V20.7452C25.0207 20.907 24.9869 21.032 24.8662 21.1522L20.1897 25.8638C20.1752 25.8782 20.1688 25.8846 20.1543 25.8926H20.1398ZM19.4572 25.1843C19.4572 19.7965 18.7747 20.4359 24.1611 20.4359V9.48877C24.1611 9.46793 24.1546 9.43909 24.1321 9.42467C24.1176 9.41024 24.0967 9.39582 24.0677 9.39582H21.7126V10.2115C21.7126 10.3766 21.6482 10.5256 21.5323 10.641C21.4244 10.7484 21.2731 10.8205 21.1008 10.8205H12.8635C12.6977 10.8205 12.5399 10.7484 12.4321 10.641C12.4176 10.6266 12.4112 10.6122 12.3967 10.5977C12.3097 10.4904 12.2534 10.3542 12.2534 10.2115V9.39582H9.89827C9.87734 9.39582 9.84836 9.40223 9.83388 9.42467C9.81939 9.43909 9.8049 9.46793 9.8049 9.48877V25.0913C9.8049 25.1202 9.81134 25.141 9.83388 25.1554C9.84836 25.1699 9.86929 25.1843 9.89827 25.1843H19.4508H19.4572ZM15.6372 19.4167C15.415 19.4167 15.2283 19.2372 15.2283 19.0096C15.2283 18.7884 15.4086 18.6026 15.6372 18.6026H19.5216C19.7438 18.6026 19.9305 18.782 19.9305 19.0096C19.9305 19.2308 19.7502 19.4167 19.5216 19.4167H15.6372ZM15.6372 13.6026C15.415 13.6026 15.2283 13.4231 15.2283 13.1955C15.2283 12.9743 15.4086 12.7884 15.6372 12.7884H21.6192C21.8414 12.7884 22.0281 12.9679 22.0281 13.1955C22.0281 13.4167 21.8478 13.6026 21.6192 13.6026H15.6372ZM15.6372 16.5096C15.415 16.5096 15.2283 16.3301 15.2283 16.1026C15.2283 15.8814 15.4086 15.6955 15.6372 15.6955H21.6192C21.8414 15.6955 22.0281 15.875 22.0281 16.1026C22.0281 16.3237 21.8478 16.5096 21.6192 16.5096H15.6372Z" fill="#333333" stroke="#333333" stroke-width="0.3"/>
</svg>
