<?xml version="1.0" encoding="UTF-8"?>
<svg version="1.1" xmlns="http://www.w3.org/2000/svg" width="187" height="75">
<path d="M0 0 C4.11610075 2.71111953 5.72408484 5.84022327 7.27734375 10.5 C7.87944358 16.47468289 7.33291507 21.20367637 4.27734375 26.5 C1.40234375 29.25 1.40234375 29.25 -1.72265625 31.5 C-2.50640625 32.098125 -3.29015625 32.69625 -4.09765625 33.3125 C-9.10780665 35.57899661 -13.33948395 34.92198477 -18.41015625 33.375 C-23.18138148 30.67430647 -25.80501356 27.55377172 -28.03515625 22.5625 C-29.49450753 16.0617534 -29.06989179 10.29013025 -25.72265625 4.5 C-17.98863959 -4.15064085 -10.16184421 -5.378901 0 0 Z M-17.72265625 5.5 C-19.62196289 11.19791992 -19.70415069 18.0900079 -18.0390625 23.875 C-16.45919412 27.02162582 -15.0149575 28.37561649 -11.78515625 29.75 C-8.57197273 29.75510114 -8.57197273 29.75510114 -5.97265625 27.5 C-1.69855814 21.80120252 -1.36411975 16.65228589 -2.23828125 9.8046875 C-3.07994571 5.7999937 -4.88287625 3.33978 -7.72265625 0.5 C-12.73416098 -0.44812252 -14.611036 1.78334247 -17.72265625 5.5 Z " fill="#B19C87" transform="translate(163.72265625,24.5)"/>
<path d="M0 0 C4.73623551 2.8329705 8.82101663 5.67541242 11.109375 10.82421875 C12.65502909 17.39324865 12.16742502 23.12388345 8.859375 29.01171875 C5.81221799 32.55797906 2.58640976 34.59462745 -2.140625 35.01171875 C-2.140625 35.67171875 -2.140625 36.33171875 -2.140625 37.01171875 C-8.65797892 37.70505427 -12.82899326 35.75868378 -18.140625 32.01171875 C-22.0263367 28.12600705 -24.04274563 24.24717581 -24.2109375 18.6875 C-23.88818311 12.48871721 -22.4231153 7.61221576 -18.140625 3.01171875 C-12.76140514 -1.05717832 -6.31905294 -2.91737298 0 0 Z M-11.453125 5.32421875 C-15.10302954 11.13702969 -14.61550371 17.34704171 -14.140625 24.01171875 C-12.81276292 27.57280342 -11.78548934 29.36685441 -9.140625 32.01171875 C-5.72562909 32.67879423 -5.72562909 32.67879423 -2.140625 32.01171875 C1.88693347 27.45421837 2.66654088 23.56677079 3.109375 17.69921875 C2.7744267 12.75873128 1.66484117 8.1743101 -1.5625 4.30859375 C-3.18870118 2.75353585 -3.18870118 2.75353585 -6.078125 2.51171875 C-9.31286639 2.73384784 -9.31286639 2.73384784 -11.453125 5.32421875 Z " fill="#998A7E" transform="translate(78.140625,21.98828125)"/>
<path d="M0 0 C3.125 2.375 3.125 2.375 5 5 C5 6.32 5 7.64 5 9 C2.69 9.66 0.38 10.32 -2 11 C-3.32 8.36 -4.64 5.72 -6 3 C-8.37374861 2.66574265 -8.37374861 2.66574265 -11 3 C-14.86370107 7.00169039 -15.17621497 11.00099029 -15.25 16.375 C-15.27578125 17.49648438 -15.3015625 18.61796875 -15.328125 19.7734375 C-14.96499264 23.34423905 -14.19271325 25.18226101 -12 28 C-11.01 28.33 -10.02 28.66 -9 29 C-6.79192337 27.84338843 -4.77322566 26.77322566 -3 25 C-2.76924918 23.65252916 -2.58846937 22.29622435 -2.4375 20.9375 C-2.293125 19.638125 -2.14875 18.33875 -2 17 C1.96 16.505 1.96 16.505 6 16 C6.33 21.94 6.66 27.88 7 34 C1 36 1 36 -3 36 C-3 35.01 -3 34.02 -3 33 C-3.86625 33.495 -4.7325 33.99 -5.625 34.5 C-9.22100908 36.09822626 -11.12882641 36.57655777 -15 36 C-19.98869476 32.91176038 -23.15179273 28.54462181 -25 23 C-25.741415 16.15710419 -25.09053621 10.6512331 -21 5 C-14.60436787 -1.88625597 -8.71445234 -3.04291533 0 0 Z " fill="#A1886B" transform="translate(122,23)"/>
<path d="M0 0 C1.65 0 3.3 0 5 0 C6.36839363 2.73678725 6.21634818 5.04264424 6.31640625 8.1015625 C6.35830078 9.31328125 6.40019531 10.525 6.44335938 11.7734375 C6.48267578 13.04445313 6.52199219 14.31546875 6.5625 15.625 C6.60568359 16.90375 6.64886719 18.1825 6.69335938 19.5 C6.7996981 22.66653082 6.9003767 25.83325079 7 29 C11.29 29.33 15.58 29.66 20 30 C20 30.99 20 31.98 20 33 C14.79826905 33.86809439 9.83021184 34.12515348 4.5625 34.0625 C3.83095703 34.05798828 3.09941406 34.05347656 2.34570312 34.04882812 C0.56376581 34.03718148 -1.21812863 34.01925191 -3 34 C-3.08777806 29.83346814 -3.14065272 25.66717724 -3.1875 21.5 C-3.21263672 20.32695313 -3.23777344 19.15390625 -3.26367188 17.9453125 C-3.32044106 11.20870227 -2.88473358 6.11775521 0 0 Z " fill="#9B8979" transform="translate(28,24)"/>
<path d="M0 0 C0.99 0.66 1.98 1.32 3 2 C2.01 2.33 1.02 2.66 0 3 C0 5.64 0 8.28 0 11 C2.06935331 11.2133948 2.06935331 11.2133948 3.5 9.75 C5.06175656 7.92795068 5.96732304 6.15437779 7 4 C7.03738281 4.86882813 7.07476562 5.73765625 7.11328125 6.6328125 C7.31753538 15.37355281 7.31753538 15.37355281 11 23 C14.5693717 24.44967902 14.5693717 24.44967902 18 25 C18.33 26.65 18.66 28.3 19 30 C12.48264608 30.69333552 8.31163174 28.74696503 3 25 C-0.33812344 21.66187656 -2.0398896 18.62598649 -3 14 C-2.92718436 8.89481442 -2.52969924 4.49954701 0 0 Z " fill="#836D57" transform="translate(57,29)"/>
<path d="M0 0 C3.125 2.375 3.125 2.375 5 5 C5 6.32 5 7.64 5 9 C2.69 9.66 0.38 10.32 -2 11 C-3.32 8.36 -4.64 5.72 -6 3 C-8.37374861 2.66574265 -8.37374861 2.66574265 -11 3 C-12.63676257 4.9600281 -12.63676257 4.9600281 -14 7 C-14.99 7 -15.98 7 -17 7 C-17.185625 8.2065625 -17.185625 8.2065625 -17.375 9.4375 C-17.58125 10.283125 -17.7875 11.12875 -18 12 C-18.99 12.495 -18.99 12.495 -20 13 C-22 11 -22 11 -22.5625 8.75 C-21.66424476 4.35852996 -18.54725658 2.49206 -15 0 C-10.20564103 -3.10985447 -5.13978147 -1.79471058 0 0 Z " fill="#95857F" transform="translate(122,23)"/>
<path d="M0 0 C1 2 2 4 3 6 C3.66 5.67 4.32 5.34 5 5 C5.66 5.33 6.32 5.66 7 6 C7.33 4.35 7.66 2.7 8 1 C8.33 1 8.66 1 9 1 C9.03738281 1.79664063 9.07476562 2.59328125 9.11328125 3.4140625 C9.42972616 11.72091513 9.42972616 11.72091513 13 19 C15.84627591 20.33550847 15.84627591 20.33550847 19 20 C21.86965747 18.18911155 21.86965747 18.18911155 24 16 C23.6875 17.875 23.6875 17.875 23 20 C19.47089647 22.35273568 18.15685632 22.40753493 14 22 C10.625 20.5 10.625 20.5 8 19 C8 17.35 8 15.7 8 14 C6.68 13.67 5.36 13.34 4 13 C3.67 13.99 3.34 14.98 3 16 C5.25973325 19.43144679 7.20167319 21.47932948 11 23 C13.81496741 23.45275278 13.81496741 23.45275278 16.75 23.625 C17.73484375 23.69976562 18.7196875 23.77453125 19.734375 23.8515625 C20.48203125 23.90054688 21.2296875 23.94953125 22 24 C21.67 24.66 21.34 25.32 21 26 C15.15883137 26.30742993 11.23299698 25.96207376 6 23 C1.2136869 18.2136869 -0.83874899 14.11751953 -1.1875 7.375 C-1.03970531 4.71469563 -0.80608679 2.51902123 0 0 Z " fill="#5F4E4B" transform="translate(136,33)"/>
<path d="M0 0 C0.99 0.66 1.98 1.32 3 2 C1.75892597 6.96429611 0.23893588 9.13871828 -4 12 C-8.41457785 14.20728892 -14.19495478 13.42672543 -19 13 C-23.08030065 11.5252846 -25.67834471 8.61146378 -28 5 C-27.34 3.68 -26.68 2.36 -26 1 C-24.68 1.33 -23.36 1.66 -22 2 C-20.875 5.75 -20.875 5.75 -22 8 C-17.83998439 9.58476785 -14.45843134 10.39630501 -10 10 C-6.7983526 8.23437778 -6.7983526 8.23437778 -5.5625 5 C-3.94453563 1.89350841 -3.22393966 1.11170333 0 0 Z " fill="#B19B89" transform="translate(166,44)"/>
<path d="M0 0 C0.33 5.94 0.66 11.88 1 18 C-2.47823115 19.15941038 -4.45895578 18.70820884 -8 18 C-8.33 16.68 -8.66 15.36 -9 14 C-10.32 14.33 -11.64 14.66 -13 15 C-12.360625 14.54625 -11.72125 14.0925 -11.0625 13.625 C-8.01774843 9.74986164 -8.18350135 5.8077353 -8 1 C-2.25 0 -2.25 0 0 0 Z " fill="#A48862" transform="translate(128,39)"/>
<path d="M0 0 C1.65 0 3.3 0 5 0 C6.25248502 2.50497004 6.11374406 4.20853274 6.09765625 7.0078125 C6.09443359 7.99394531 6.09121094 8.98007812 6.08789062 9.99609375 C6.07951172 11.02863281 6.07113281 12.06117187 6.0625 13.125 C6.05798828 14.16527344 6.05347656 15.20554687 6.04882812 16.27734375 C6.03701952 18.85161962 6.02055075 21.42578146 6 24 C2.86650268 25.04449911 2.01031744 24.93423645 -1 24 C-1 23.34 -1 22.68 -1 22 C-0.01 22 0.98 22 2 22 C2 19.36 2 16.72 2 14 C1.01 14.33 0.02 14.66 -1 15 C-2.51708428 4.44191344 -2.51708428 4.44191344 0 0 Z " fill="#B29570" transform="translate(28,24)"/>
<path d="M0 0 C0.66 0 1.32 0 2 0 C1.96519531 1.09699219 1.93039063 2.19398437 1.89453125 3.32421875 C1.86638135 4.77863045 1.83908248 6.2330588 1.8125 7.6875 C1.78736328 8.40873047 1.76222656 9.12996094 1.73632812 9.87304688 C1.67369838 14.4450183 2.06666959 17.42393519 5 21 C5.99 21.33 6.98 21.66 8 22 C10.58944746 20.66299965 10.58944746 20.66299965 13 19 C13.66 18.67 14.32 18.34 15 18 C14.34 19.32 13.68 20.64 13 22 C13.66 22 14.32 22 15 22 C15 23.65 15 25.3 15 27 C16.32 27.33 17.64 27.66 19 28 C17.35 28.33 15.7 28.66 14 29 C14 28.01 14 27.02 14 26 C13.13375 26.495 12.2675 26.99 11.375 27.5 C7.89250377 29.0477761 5.75240542 29.26802896 2 29 C2.33 28.01 2.66 27.02 3 26 C3.66 25.67 4.32 25.34 5 25 C4.54625 24.5875 4.0925 24.175 3.625 23.75 C2 22 2 22 1.1875 19.9375 C-0.57484972 17.0620873 -2.8451787 16.82299686 -6 16 C-5.01 15.34 -4.02 14.68 -3 14 C-2.27617533 11.94074861 -2.27617533 11.94074861 -2 10 C-1.34 10 -0.68 10 0 10 C0 6.7 0 3.4 0 0 Z " fill="#74625B" transform="translate(105,30)"/>
<path d="M0 0 C0.02689216 1.47906892 0.04634621 2.95827483 0.0625 4.4375 C0.07410156 5.26121094 0.08570313 6.08492187 0.09765625 6.93359375 C0 9 0 9 -1 10 C-1.36760731 12.32817964 -1.70241581 14.6618385 -2 17 C-2.33 16.34 -2.66 15.68 -3 15 C-4.32 15.33 -5.64 15.66 -7 16 C-9.38313638 12.42529543 -9.64837918 11.21446465 -9 7 C-4.54417671 0 -4.54417671 0 0 0 Z " fill="#A89176" transform="translate(146,24)"/>
<path d="M0 0 C0.99 0.33 1.98 0.66 3 1 C2.88512252 2.58409994 2.75765492 4.16728963 2.625 5.75 C2.55539063 6.63171875 2.48578125 7.5134375 2.4140625 8.421875 C2.00149945 10.99066382 1.28839043 12.75841015 0 15 C-0.66 15 -1.32 15 -2 15 C-2.99 15.495 -2.99 15.495 -4 16 C-5.23666047 12.42742531 -4.89093449 9.64473199 -4 6 C-3.34 5.67 -2.68 5.34 -2 5 C-2 4.01 -2 3.02 -2 2 C-1.34 1.34 -0.68 0.68 0 0 Z " fill="#AF926F" transform="translate(61,26)"/>
<path d="M0 0 C0.33 0 0.66 0 1 0 C1.21755666 5.4389165 1.10428384 9.87080814 -1 15 C-1.66 13.68 -2.32 12.36 -3 11 C-3.66 11 -4.32 11 -5 11 C-5.99 11 -6.98 11 -8 11 C-8.33 11.99 -8.66 12.98 -9 14 C-10.40742022 11.18515955 -9.66652164 9.43063887 -9.0625 6.375 C-8.86785156 5.37210938 -8.67320312 4.36921875 -8.47265625 3.3359375 C-8.31667969 2.56507812 -8.16070312 1.79421875 -8 1 C-7.67 1.99 -7.34 2.98 -7 4 C-5.02 4 -3.04 4 -1 4 C-0.67 2.68 -0.34 1.36 0 0 Z " fill="#86705C" transform="translate(170,35)"/>
<path d="M0 0 C2.97 0.495 2.97 0.495 6 1 C6 1.66 6 2.32 6 3 C5.34 3.66 4.68 4.32 4 5 C3.8453125 5.9590625 3.8453125 5.9590625 3.6875 6.9375 C3 9 3 9 0.6875 10.8125 C-2 12 -2 12 -4.3125 11.6875 C-4.869375 11.460625 -5.42625 11.23375 -6 11 C-4.18690997 7.22272911 -2.0926741 3.62730178 0 0 Z " fill="#A7947E" transform="translate(81,45)"/>
<path d="M0 0 C2.25 -0.3125 2.25 -0.3125 5 0 C7.0625 2.1875 7.0625 2.1875 9 5 C10.11375 6.3921875 10.11375 6.3921875 11.25 7.8125 C11.8275 8.534375 12.405 9.25625 13 10 C9.8125 10.8125 9.8125 10.8125 6 11 C3 8.875 3 8.875 1 6 C1.1875 3.1875 1.1875 3.1875 2 1 C1.34 0.67 0.68 0.34 0 0 Z " fill="#B39F85" transform="translate(99,46)"/>
<path d="M0 0 C0.33 0 0.66 0 1 0 C1.36196676 5.79146822 0.38210489 9.6860737 -2 15 C-2.99 15.495 -2.99 15.495 -4 16 C-4.33 15.01 -4.66 14.02 -5 13 C-4.01 12.67 -3.02 12.34 -2 12 C-2.66 11.67 -3.32 11.34 -4 11 C-4 10.34 -4 9.68 -4 9 C-5.32 9 -6.64 9 -8 9 C-8.33 9.66 -8.66 10.32 -9 11 C-8.67 7.7 -8.34 4.4 -8 1 C-6.515 1.99 -6.515 1.99 -5 3 C-5 3.66 -5 4.32 -5 5 C-3.00016466 4.20882096 -3.00016466 4.20882096 -1 3 C-0.67 2.01 -0.34 1.02 0 0 Z " fill="#826E5B" transform="translate(89,36)"/>
<path d="M0 0 C-0.66 1.65 -1.32 3.3 -2 5 C-2.99 4.34 -3.98 3.68 -5 3 C-9.84122604 3.23042759 -9.84122604 3.23042759 -13.9375 5.5625 C-14.288125 6.036875 -14.63875 6.51125 -15 7 C-15.33 4.69 -15.66 2.38 -16 0 C-10.24052462 -2.71034135 -5.75947538 -2.71034135 0 0 Z " fill="#8A7D7C" transform="translate(161,23)"/>
<path d="M0 0 C1.051875 0.12375 2.10375 0.2475 3.1875 0.375 C3.375 3.75 3.375 3.75 3.1875 7.375 C0.1875 9.375 0.1875 9.375 -3.8125 9.375 C-4.1425 8.055 -4.4725 6.735 -4.8125 5.375 C-6.1325 5.705 -7.4525 6.035 -8.8125 6.375 C-4.75096154 0.46730769 -4.75096154 0.46730769 0 0 Z " fill="#B1977C" transform="translate(123.8125,47.625)"/>
<path d="M0 0 C0.33 0.66 0.66 1.32 1 2 C-1.64 2 -4.28 2 -7 2 C-5.35 2.33 -3.7 2.66 -2 3 C-2 3.33 -2 3.66 -2 4 C-2.928125 4.20625 -3.85625 4.4125 -4.8125 4.625 C-8.26004095 5.74446192 -8.26004095 5.74446192 -9.875 9.125 C-10.24625 10.07375 -10.6175 11.0225 -11 12 C-11.33 12 -11.66 12 -12 12 C-12.33 10.02 -12.66 8.04 -13 6 C-14.65 6.66 -16.3 7.32 -18 8 C-16.2576496 3.81131923 -14.23836868 2.62366737 -10.2421875 0.75 C-6.70910361 -0.43179809 -3.69781089 -0.26412935 0 0 Z " fill="#6D6261" transform="translate(76,21)"/>
<path d="M0 0 C0.66 0 1.32 0 2 0 C2.33 1.98 2.66 3.96 3 6 C3.66 6 4.32 6 5 6 C5.33 8.64 5.66 11.28 6 14 C5.01 14.495 5.01 14.495 4 15 C3.34 14.67 2.68 14.34 2 14 C1.67 16.64 1.34 19.28 1 22 C0.67 22 0.34 22 0 22 C0 14.74 0 7.48 0 0 Z " fill="#7E6956" transform="translate(25,32)"/>
<path d="M0 0 C2.30163882 3.45245824 2.34490322 4.94738713 2 9 C-0.35953094 11.35953094 -1.77895617 11.49141413 -5 12 C-6.31626692 8.38026598 -7 5.90432869 -7 2 C-6.34 2 -5.68 2 -5 2 C-4.34 2.66 -3.68 3.32 -3 4 C-2.34 4 -1.68 4 -1 4 C-0.67 2.68 -0.34 1.36 0 0 Z " fill="#9D846C" transform="translate(87,30)"/>
<path d="M0 0 C0.33 0 0.66 0 1 0 C1 1.65 1 3.3 1 5 C2.32 5.33 3.64 5.66 5 6 C3.35 6.33 1.7 6.66 0 7 C0 6.01 0 5.02 0 4 C-1.299375 4.7425 -1.299375 4.7425 -2.625 5.5 C-6.10749623 7.0477761 -8.24759458 7.26802896 -12 7 C-11 4 -11 4 -9 2 C-7.08984375 1.62109375 -7.08984375 1.62109375 -4.9375 1.4375 C-1.23263383 1.44086552 -1.23263383 1.44086552 0 0 Z " fill="#857974" transform="translate(119,52)"/>
<path d="M0 0 C1.485 0.99 1.485 0.99 3 2 C2.67 2.66 2.34 3.32 2 4 C4.64 3.34 7.28 2.68 10 2 C10 4.97 10 7.94 10 11 C7.69 10.34 5.38 9.68 3 9 C3 8.01 3 7.02 3 6 C2.34 6 1.68 6 1 6 C0.67 4.02 0.34 2.04 0 0 Z " fill="#9C846B" transform="translate(160,30)"/>
<path d="M0 0 C0 0.66 0 1.32 0 2 C-0.66 2 -1.32 2 -2 2 C-2 3.32 -2 4.64 -2 6 C-2.66 6 -3.32 6 -4 6 C-4.185625 7.2065625 -4.185625 7.2065625 -4.375 8.4375 C-4.58125 9.283125 -4.7875 10.12875 -5 11 C-5.99 11.495 -5.99 11.495 -7 12 C-9 10 -9 10 -9.4375 7.6875 C-8.54981164 2.23455721 -5.28105624 0 0 0 Z " fill="#B29A7D" transform="translate(109,24)"/>
<path d="M0 0 C0.33 0 0.66 0 1 0 C1.03738281 0.79664063 1.07476562 1.59328125 1.11328125 2.4140625 C1.42972616 10.72091513 1.42972616 10.72091513 5 18 C7.84627591 19.33550847 7.84627591 19.33550847 11 19 C13.86965747 17.18911155 13.86965747 17.18911155 16 15 C15.6875 16.875 15.6875 16.875 15 19 C11.47089647 21.35273568 10.15685632 21.40753493 6 21 C2.625 19.5 2.625 19.5 0 18 C0.020625 17.195625 0.04125 16.39125 0.0625 15.5625 C0.29633621 13.06645115 0.29633621 13.06645115 -1 12 C-0.90997602 9.97591245 -0.75358962 7.95455713 -0.5625 5.9375 C-0.46066406 4.83277344 -0.35882813 3.72804687 -0.25390625 2.58984375 C-0.17011719 1.73519531 -0.08632812 0.88054688 0 0 Z " fill="#54474D" transform="translate(144,34)"/>
<path d="M0 0 C0.99 0.66 1.98 1.32 3 2 C1.83857315 6.35535069 0.92300495 8.64619703 -3 11 C-3.33 10.01 -3.66 9.02 -4 8 C-4.33 7.67 -4.66 7.34 -5 7 C-5 4 -5 4 -4 2 C-1.9375 0.875 -1.9375 0.875 0 0 Z " fill="#A68C6C" transform="translate(166,44)"/>
<path d="M0 0 C2.125 0.375 2.125 0.375 4 1 C4.94616328 4.42984189 5 7.44175575 5 11 C-0.71562208 6.62207671 -0.71562208 6.62207671 -2 3.8125 C-2 2 -2 2 0 0 Z " fill="#A68F71" transform="translate(140,45)"/>
<path d="M0 0 C2.31 0.66 4.62 1.32 7 2 C7 3.98 7 5.96 7 8 C5.35 8.33 3.7 8.66 2 9 C2 7.68 2 6.36 2 5 C1.34 5 0.68 5 0 5 C0 3.35 0 1.7 0 0 Z " fill="#B0987B" transform="translate(80,27)"/>
<path d="M0 0 C0.33 0.66 0.66 1.32 1 2 C0.09507813 2.14695312 0.09507813 2.14695312 -0.828125 2.296875 C-5.70578282 3.20946904 -8.83823388 3.87595723 -12 8 C-12 6.68 -12 5.36 -12 4 C-11.34 4 -10.68 4 -10 4 C-10 3.34 -10 2.68 -10 2 C-10.66 1.67 -11.32 1.34 -12 1 C-7.69097166 -1.21980248 -4.68909708 -1.08209933 0 0 Z " fill="#8E817F" transform="translate(119,22)"/>
<path d="M0 0 C0.33 0.66 0.66 1.32 1 2 C2.32 1.67 3.64 1.34 5 1 C5.45375 2.11375 5.9075 3.2275 6.375 4.375 C7.72465986 7.96199008 7.72465986 7.96199008 10 10 C8.1875 10.625 8.1875 10.625 6 11 C3 9 3 9 2.4375 6.4375 C2.293125 5.633125 2.14875 4.82875 2 4 C1.34 3.67 0.68 3.34 0 3 C0 2.01 0 1.02 0 0 Z " fill="#A89274" transform="translate(57,45)"/>
<path d="M0 0 C0.33 1.32 0.66 2.64 1 4 C-6.42857143 4.28571429 -6.42857143 4.28571429 -10 2 C-10 1.34 -10 0.68 -10 0 C-6.7169902 -1.6415049 -3.57454967 -0.51888624 0 0 Z " fill="#7C6E73" transform="translate(75,55)"/>
<path d="M0 0 C2.97 0.495 2.97 0.495 6 1 C6 1.66 6 2.32 6 3 C5.34 3.66 4.68 4.32 4 5 C3.835 5.680625 3.67 6.36125 3.5 7.0625 C3.335 7.701875 3.17 8.34125 3 9 C2.01 9.495 2.01 9.495 1 10 C1 8.35 1 6.7 1 5 C0.01 5 -0.98 5 -2 5 C-1.34 3.35 -0.68 1.7 0 0 Z " fill="#9F876F" transform="translate(81,45)"/>
<path d="M0 0 C1.65 0 3.3 0 5 0 C6.35439668 2.70879335 6.06501451 5.00933268 6 8 C5.5875 7.505 5.175 7.01 4.75 6.5 C2.87797662 4.56613908 2.87797662 4.56613908 -1 5 C-0.67 3.35 -0.34 1.7 0 0 Z " fill="#C9B18E" transform="translate(28,24)"/>
<path d="M0 0 C0.33 0.99 0.66 1.98 1 3 C3.64 3.33 6.28 3.66 9 4 C9 4.33 9 4.66 9 5 C3.72 5 -1.56 5 -7 5 C-6.67 3.68 -6.34 2.36 -6 1 C-4.02 0.67 -2.04 0.34 0 0 Z " fill="#7A6960" transform="translate(32,53)"/>
<path d="M0 0 C0 1.98 0 3.96 0 6 C-0.33 5.34 -0.66 4.68 -1 4 C-2.98 4.33 -4.96 4.66 -7 5 C-7.33 6.32 -7.66 7.64 -8 9 C-8 6.36 -8 3.72 -8 1 C-2.25 0 -2.25 0 0 0 Z " fill="#967F66" transform="translate(128,39)"/>
<path d="M0 0 C2.375 -0.125 2.375 -0.125 5 0 C5.66 0.66 6.32 1.32 7 2 C6.875 4 6.875 4 6 6 C3.9375 7.25 3.9375 7.25 2 8 C0.875 3.25 0.875 3.25 2 1 C1.34 0.67 0.68 0.34 0 0 Z " fill="#AD9071" transform="translate(99,46)"/>
<path d="M0 0 C0.99 0.33 1.98 0.66 3 1 C3 2.98 3 4.96 3 7 C0.69 7.33 -1.62 7.66 -4 8 C-4 7.34 -4 6.68 -4 6 C-3.34 5.67 -2.68 5.34 -2 5 C-2 4.01 -2 3.02 -2 2 C-1.34 1.34 -0.68 0.68 0 0 Z " fill="#C0A889" transform="translate(61,26)"/>
<path d="M0 0 C2.31 0 4.62 0 7 0 C7 1.32 7 2.64 7 4 C4 6 4 6 0 6 C0 4.02 0 2.04 0 0 Z " fill="#C1A788" transform="translate(120,51)"/>
<path d="M0 0 C1.12208787 1.68313181 2.22436284 3.38141682 3.25 5.125 C5.62291268 7.66740645 7.61671141 7.69926324 11 8 C11 8.33 11 8.66 11 9 C2.73913043 9.31772575 2.73913043 9.31772575 0 7 C-0.8125 3.9375 -0.8125 3.9375 -1 1 C-0.67 0.67 -0.34 0.34 0 0 Z " fill="#655753" transform="translate(64,46)"/>
<path d="M0 0 C0.99 0.66 1.98 1.32 3 2 C2.01 2.33 1.02 2.66 0 3 C-0.33 6.63 -0.66 10.26 -1 14 C-1.66 14 -2.32 14 -3 14 C-2.88512252 12.41590006 -2.75765492 10.83271037 -2.625 9.25 C-2.55539063 8.36828125 -2.48578125 7.4865625 -2.4140625 6.578125 C-2.00149945 4.00933618 -1.28839043 2.24158985 0 0 Z " fill="#7D6F65" transform="translate(57,29)"/>
<path d="M0 0 C1.42944945 2.35438733 2.08661261 3.48032433 1.625 6.25 C1.41875 6.8275 1.2125 7.405 1 8 C0.34 7.67 -0.32 7.34 -1 7 C-1 6.34 -1 5.68 -1 5 C-1.66 4.67 -2.32 4.34 -3 4 C-3.66 3.01 -4.32 2.02 -5 1 C-2 0 -2 0 0 0 Z " fill="#C3AC88" transform="translate(122,23)"/>
<path d="M0 0 C4.84688192 0.78175515 9.3766367 2.39844278 14 4 C14 4.33 14 4.66 14 5 C10.61884349 5.29036649 7.37080851 5.44908891 4 5 C1.375 2.5 1.375 2.5 0 0 Z " fill="#BCAA98" transform="translate(143,52)"/>
<path d="M0 0 C0.33 1.32 0.66 2.64 1 4 C0.34 4 -0.32 4 -1 4 C-1.33 5.98 -1.66 7.96 -2 10 C-3.32 9.34 -4.64 8.68 -6 8 C-5.67 7.34 -5.34 6.68 -5 6 C-4.34 6 -3.68 6 -3 6 C-2.87625 5.38125 -2.7525 4.7625 -2.625 4.125 C-2 2 -2 2 0 0 Z " fill="#C4A987" transform="translate(145,24)"/>
<path d="M0 0 C0 1.65 0 3.3 0 5 C1.32 5.33 2.64 5.66 4 6 C2.35 6.33 0.7 6.66 -1 7 C-1 6.01 -1 5.02 -1 4 C-2.65 4.66 -4.3 5.32 -6 6 C-6 5.34 -6 4.68 -6 4 C-1.41176471 0 -1.41176471 0 0 0 Z " fill="#281E3B" transform="translate(120,52)"/>
<path d="M0 0 C0.33 0 0.66 0 1 0 C1.33 1.65 1.66 3.3 2 5 C2.66 4.67 3.32 4.34 4 4 C3.67 5.32 3.34 6.64 3 8 C2.01 8 1.02 8 0 8 C-0.33 9.65 -0.66 11.3 -1 13 C-2.40742022 10.18515955 -1.66652164 8.43063887 -1.0625 5.375 C-0.86785156 4.37210938 -0.67320312 3.36921875 -0.47265625 2.3359375 C-0.31667969 1.56507812 -0.16070312 0.79421875 0 0 Z " fill="#64524D" transform="translate(162,36)"/>
<path d="M0 0 C0.33 0 0.66 0 1 0 C1 2.64 1 5.28 1 8 C-2.13349732 9.04449911 -2.98968256 8.93423645 -6 8 C-6 7.34 -6 6.68 -6 6 C-4.35 5.67 -2.7 5.34 -1 5 C-0.67 3.35 -0.34 1.7 0 0 Z " fill="#A38A69" transform="translate(33,40)"/>
<path d="M0 0 C0.66 0.33 1.32 0.66 2 1 C0.625 3.5 0.625 3.5 -1 6 C-1.66 6 -2.32 6 -3 6 C-3.33 6.99 -3.66 7.98 -4 9 C-4.66 9 -5.32 9 -6 9 C-4.68775452 5.06326356 -3.08089673 2.77280706 0 0 Z " fill="#817371" transform="translate(143,24)"/>
<path d="M0 0 C0.33 0 0.66 0 1 0 C1.33 2.64 1.66 5.28 2 8 C-1.62326739 9.2077558 -2.64146369 8.54311128 -6 7 C-6 6.67 -6 6.34 -6 6 C-4.02 6 -2.04 6 0 6 C0 4.02 0 2.04 0 0 Z " fill="#8F817A" transform="translate(127,49)"/>
<path d="M0 0 C3.375 4.5 3.375 4.5 4 8 C3.01 8 2.02 8 1 8 C0.67 8.66 0.34 9.32 0 10 C0 6.7 0 3.4 0 0 Z " fill="#7F6A5B" transform="translate(97,36)"/>
<path d="M0 0 C0.33 1.32 0.66 2.64 1 4 C-0.65 5.32 -2.3 6.64 -4 8 C-4.33 7.01 -4.66 6.02 -5 5 C-3.35 3.35 -1.7 1.7 0 0 Z " fill="#9B877D" transform="translate(167,47)"/>
<path d="M0 0 C0.99 0.33 1.98 0.66 3 1 C3 3.33333333 3 5.66666667 3 8 C1.68 7.01 0.36 6.02 -1 5 C-0.67 3.35 -0.34 1.7 0 0 Z " fill="#AE967E" transform="translate(142,48)"/>
<path d="M0 0 C0.66 0.33 1.32 0.66 2 1 C2 2.65 2 4.3 2 6 C1.67 5.34 1.34 4.68 1 4 C-0.98 4.33 -2.96 4.66 -5 5 C-5 4.34 -5 3.68 -5 3 C-2.625 1.3125 -2.625 1.3125 0 0 Z " fill="#AC927D" transform="translate(167,29)"/>
<path d="M0 0 C3 0.1875 3 0.1875 5 1.1875 C5 1.8475 5 2.5075 5 3.1875 C1.7 2.8575 -1.6 2.5275 -5 2.1875 C-3 0.1875 -3 0.1875 0 0 Z " fill="#B7A599" transform="translate(72,21.8125)"/>
<path d="M0 0 C0.66 0.99 1.32 1.98 2 3 C0.125 4.0625 0.125 4.0625 -2 5 C-2.66 4.67 -3.32 4.34 -4 4 C-4 3.01 -4 2.02 -4 1 C-2.68 0.67 -1.36 0.34 0 0 Z " fill="#B39A74" transform="translate(141,32)"/>
<path d="M0 0 C2.475 0.495 2.475 0.495 5 1 C4.34 2.32 3.68 3.64 3 5 C2.01 5 1.02 5 0 5 C0 3.35 0 1.7 0 0 Z " fill="#C4AA88" transform="translate(80,27)"/>
<path d="M0 0 C1.32 0 2.64 0 4 0 C4 0.66 4 1.32 4 2 C3.34 2 2.68 2 2 2 C2 3.32 2 4.64 2 6 C1.34 6 0.68 6 0 6 C-0.38218767 4.34385343 -0.71395102 2.67542976 -1 1 C-0.67 0.67 -0.34 0.34 0 0 Z " fill="#B5A28F" transform="translate(105,24)"/>
<path d="M0 0 C0.66 0 1.32 0 2 0 C2 0.99 2 1.98 2 3 C2.99 3.33 3.98 3.66 5 4 C5.33 4.99 5.66 5.98 6 7 C5.01 7 4.02 7 3 7 C0 2.77777778 0 2.77777778 0 0 Z " fill="#77695F" transform="translate(55,45)"/>
<path d="M0 0 C-0.33 0.99 -0.66 1.98 -1 3 C-2.98 3.33 -4.96 3.66 -7 4 C-7.33 3.01 -7.66 2.02 -8 1 C-2.25 0 -2.25 0 0 0 Z " fill="#786A58" transform="translate(128,39)"/>
</svg>
