<svg width="37" height="39" viewBox="0 0 37 39" fill="none" xmlns="http://www.w3.org/2000/svg">
<path fill-rule="evenodd" clip-rule="evenodd" d="M6.49336 5.63137C21.3257 -4.6005 22.4335 15.65 37 3.00627V23.6395C23.1072 36.1061 20.1101 15.9635 6.49336 26.2002V5.63137ZM2.83003 0C4.39326 0 5.66038 1.2651 5.66038 2.8241C5.66038 3.85972 5.10124 4.76459 4.2689 5.25622H4.40248V7.67597V31.325V33.7447H4.2689C5.10124 34.2364 5.66038 34.8791 5.66038 36.1765C5.66038 37.4737 4.39326 39 2.83003 39C1.26712 39 0 37.4734 0 36.1765C0 34.8791 0.558818 34.2364 1.39116 33.7447H1.2579V31.325V7.67597V5.25622H1.39116C0.558818 4.76459 0 3.86004 0 2.8241C0 1.2651 1.26712 0 2.83003 0Z" fill="#333333"/>
</svg>
