<svg width="47" height="31" viewBox="0 0 47 31" fill="none" xmlns="http://www.w3.org/2000/svg">
<path fill-rule="evenodd" clip-rule="evenodd" d="M8.0738 15.3183L9.57324 15.2804L10.2847 15.2615L11.3634 16.4998C11.6158 16.7914 11.8759 17.083 12.159 17.3633C11.9601 17.6586 11.0612 18.4122 10.2656 19.0787C9.91367 19.3741 9.57706 19.6544 9.32078 19.8854C7.29348 20.6692 5.31591 21.4645 3.78587 22.4188C2.61157 23.1459 2.00338 23.6988 1.52907 24.5812C0.274439 26.9139 0.561321 26.5996 0.0487586 28.9891C-0.10807 31.0947 0.0449336 30.9886 1.54054 30.9621C2.61922 30.9432 3.75527 30.9356 4.93723 30.928L3.88533 22.9717C5.77492 22.1121 7.0984 21.3623 9.32843 20.5897C12.0672 26.0618 20.7884 25.1113 21.7256 20.3511C23.6802 20.976 25.566 22.0818 27.5014 22.8884L26.3004 31C27.5397 30.9924 28.7331 30.9811 29.8692 30.9583C31.4642 30.928 31.4795 31 31.3189 29.3565C31.1429 27.5198 30.55 25.9672 29.8003 24.5736C29.326 23.6912 28.7178 23.1421 27.5435 22.4112C25.9944 21.4494 23.9938 20.6427 21.9474 19.8588C21.7638 19.696 21.5573 19.518 21.3431 19.3325C20.6698 18.7493 19.9163 18.0979 19.6103 17.723C20.0884 17.3065 20.4939 16.8293 20.8955 16.3521L21.5726 15.5455C21.584 15.5342 21.6338 15.4736 21.7103 15.3865C21.7485 15.341 21.7906 15.2956 21.8327 15.2464H23.313C25.4933 10.6263 24.1086 3.76438 19.6524 0.856019C18.2792 -0.0339098 17.2961 0.000172517 15.6934 0.000172517C13.8535 0.000172517 12.9164 0.0569766 11.3404 1.09081C9.0186 2.60937 7.59567 5.24129 6.99513 8.89189C6.8689 10.7096 6.78857 13.8528 8.0738 15.3183ZM28.6031 18.4274L29.785 18.3971L30.3435 18.3819L31.1927 19.359C31.3916 19.59 31.5943 19.821 31.82 20.0406C31.6631 20.2754 30.9517 20.87 30.3244 21.3963C30.1178 21.5668 29.6856 21.9909 29.4637 22.078C30.5462 26.486 38.5215 26.717 39.3745 22.3999C40.916 22.8922 42.4078 23.767 43.934 24.4032L42.9854 30.8031C43.9646 30.7955 44.9056 30.7879 45.8045 30.769C47.063 30.7463 47.0744 30.7993 46.9482 29.5042C46.8105 28.0538 46.34 26.8306 45.7471 25.7324C45.3723 25.0356 44.8941 24.6039 43.9646 24.0245C42.7444 23.2671 41.1647 22.6309 39.5467 22.0098C39.4013 21.8811 39.2368 21.7409 39.0724 21.5933C38.5407 21.135 37.9478 20.6162 37.7068 20.3209C38.0855 19.9914 38.403 19.6127 38.7204 19.2378L39.256 18.6016C39.2636 18.5902 39.3057 18.5448 39.3631 18.4766C39.3937 18.4425 39.4243 18.4047 39.4587 18.363H40.6253C42.3466 14.7162 41.2527 9.30088 37.7336 7.006C36.6511 6.29784 35.8746 6.32814 34.6085 6.32814C33.1588 6.32814 32.4167 6.37358 31.1735 7.18777C29.3413 8.38823 28.2167 10.4635 27.7424 13.3453C27.6544 14.7881 27.5894 17.2686 28.6031 18.4274ZM30.6227 17.9048C29.6588 14.595 30.1293 11.5503 32.7648 8.94491C33.2314 10.4407 34.2795 11.6791 36.0658 12.5917C36.9188 13.2166 37.745 13.9777 38.5445 14.8449C38.686 14.2693 38.1467 13.565 37.4888 12.8417C38.097 13.137 38.6516 13.5536 39.0456 14.3489C39.5046 15.2767 39.4969 16.0568 39.3439 17.0603C39.298 17.3519 39.2407 17.6283 39.1603 17.8934C39.1068 17.9124 39.0609 17.9427 39.0303 17.9843C38.9576 18.0714 38.8849 18.1585 38.8199 18.2343C38.8008 18.257 38.7816 18.2797 38.709 18.3668L38.1735 19.003C37.768 19.4877 37.3549 19.9725 36.8308 20.3246C36.3336 20.6617 35.7216 20.8851 34.8801 20.8851C34.1074 20.8813 33.5221 20.6692 33.0402 20.3474C32.5353 20.0141 32.126 19.5559 31.7358 19.109L30.7604 17.9881C30.7298 17.954 30.6801 17.9237 30.6227 17.9048ZM38.5789 21.8697C38.074 21.4342 37.5461 20.9646 37.2899 20.6541L37.2707 20.6655C36.6625 21.0782 35.9128 21.3509 34.8839 21.3509C33.9238 21.3471 33.2047 21.082 32.6118 20.6958C32.4702 20.6011 32.3364 20.5026 32.214 20.3966C31.9194 20.7601 31.2653 21.3092 30.6763 21.8053L30.5462 21.9114C30.4544 25.1833 37.615 26.1754 38.5789 21.8697ZM10.6328 14.6556C9.41259 10.4597 10.0055 6.60458 13.3448 3.30238C13.9377 5.19963 15.265 6.76742 17.5294 7.92243C18.6119 8.71769 19.6562 9.67578 20.6698 10.7778C20.8496 10.0469 20.1649 9.15697 19.3349 8.24054C20.1037 8.61544 20.8075 9.14183 21.3086 10.1529C21.89 11.3269 21.8824 12.3153 21.6873 13.5877C21.6299 13.955 21.5534 14.3072 21.454 14.6442C21.389 14.6707 21.3277 14.7086 21.2895 14.7578C21.1977 14.8677 21.1059 14.9775 21.0217 15.0722C20.995 15.1025 20.972 15.129 20.8802 15.2388L20.2032 16.0454C19.6868 16.6589 19.1627 17.2724 18.501 17.723C17.8699 18.1509 17.0934 18.435 16.03 18.4312C15.0508 18.4274 14.3087 18.1547 13.6967 17.7495C13.0541 17.3292 12.5415 16.7498 12.0442 16.1817L10.8126 14.7692C10.7705 14.7162 10.7055 14.6783 10.6328 14.6556ZM20.7119 19.6809C20.0731 19.128 19.4037 18.5372 19.0786 18.1396L19.0556 18.1547C18.283 18.6773 17.3344 19.0257 16.0338 19.0219C14.8174 19.0181 13.9032 18.6849 13.1574 18.1888C12.9776 18.0714 12.8093 17.9427 12.6524 17.8139C12.2814 18.2759 11.4514 18.9727 10.7055 19.5975L10.541 19.7339C10.4186 23.8806 19.4917 25.1378 20.7119 19.6809Z" fill="#333333"/>
</svg>
