<svg width="47" height="31" viewBox="0 0 47 31" fill="none" xmlns="http://www.w3.org/2000/svg">
<path fill-rule="evenodd" clip-rule="evenodd" d="M9.53845 18.0904L11.6573 24.6173L12.7243 20.7428L12.2003 20.1458C11.9632 19.7852 11.9135 19.4727 12.0435 19.2003C12.3266 18.6153 12.9117 18.7235 13.4586 18.7235C14.0323 18.7235 14.7398 18.6113 14.9196 19.3605C14.9808 19.6129 14.9043 19.8734 14.736 20.1458L14.2121 20.7428L15.2791 24.6173L17.199 18.0904C18.5835 19.3966 22.6796 19.657 24.2056 20.5465C24.6875 20.827 25.1235 21.1876 25.4716 21.6724C26.0032 22.4056 26.3283 23.3672 26.4162 24.5853L26.7337 29.5656C26.6572 30.427 26.1906 30.9239 25.2689 31H13.4663H1.46481C0.543087 30.9239 0.0764912 30.427 0 29.5656L0.317438 24.5853C0.405403 23.3672 0.730491 22.4056 1.2621 21.6724C1.61396 21.1876 2.04614 20.831 2.53186 20.5465C4.05786 19.657 8.15396 19.3966 9.53845 18.0904ZM28.6536 13.05L29.8583 13.0179L30.8604 12.9899C29.69 9.21956 30.084 5.75777 32.895 2.81685C33.3731 4.43155 34.444 5.76578 36.2606 6.75143C37.1326 7.42856 37.974 8.24593 38.7887 9.1875C38.934 8.56647 38.3833 7.8092 37.714 7.02789C38.3335 7.34843 38.8996 7.79718 39.305 8.65862C39.7716 9.65629 39.7678 10.5017 39.611 11.5835C39.5383 12.0884 39.4197 12.5571 39.2553 12.9899H40.919C42.6744 9.05128 41.5615 3.2055 37.9702 0.729353C36.8687 -0.0279135 36.0771 0.000133398 34.7844 0.000133398C33.3043 0.000133398 32.547 0.0482138 31.2811 0.925682C29.4109 2.21985 28.2635 4.45959 27.7816 7.5728C27.6822 9.1234 27.6171 11.8039 28.6536 13.05ZM33.2316 20.218L34.1304 16.9485L33.6905 16.4436C33.4917 16.1391 33.4496 15.8747 33.5605 15.6463C33.7976 15.1535 34.2948 15.2456 34.7538 15.2456C35.2357 15.2456 35.8323 15.1495 35.9853 15.7825C36.035 15.9949 35.9738 16.2153 35.8323 16.4436L35.3925 16.9485L36.2912 20.218L34.7614 21.4841L33.2316 20.218ZM41.2746 19.0841C40.5939 17.6537 39.7295 16.4356 38.7237 15.2977C40.6168 16.067 42.552 16.8243 43.9862 17.7659C44.8965 18.3629 45.3707 18.8156 45.7379 19.5408C46.5219 21.0834 46.6061 22.4657 46.7246 24.1365L47 27.0253H34.7614H28.7722C28.6995 25.2384 28.776 23.9121 28.2099 22.1973C27.9728 21.4801 27.6477 20.839 27.2423 20.2741C26.9708 19.8974 26.6533 19.5609 26.3015 19.2523C25.9726 18.9639 25.6284 18.7235 25.2803 18.5191C25.135 18.435 24.982 18.3548 24.8214 18.2827C25.0279 18.1144 25.265 17.9462 25.5404 17.7659C26.9746 16.8243 28.906 16.067 30.803 15.2977C29.7971 16.4396 28.9328 17.6537 28.252 19.0841L30.2255 19.032L34.7652 23.1669L39.305 19.032L41.2746 19.0841ZM8.4561 8.81488C8.26487 8.83492 8.11954 8.883 8.01245 8.95912C7.94361 9.0072 7.89389 9.0673 7.85947 9.14343C7.82122 9.22757 7.80592 9.33175 7.80975 9.44794C7.82122 9.81255 8.0048 10.2974 8.36431 10.8543L8.37196 10.8623L9.55757 12.8336C10.0318 13.6229 10.5252 14.4243 11.1409 15.0133C11.7261 15.5742 12.4375 15.9548 13.3745 15.9548C14.3918 15.9588 15.1338 15.5622 15.7381 14.9692C16.3691 14.3481 16.874 13.4947 17.3673 12.6413L18.6983 10.3454C18.9698 9.70036 19.0501 9.3037 18.9622 9.11538C18.9124 9.0072 18.7289 8.96714 18.4305 8.98316C18.224 9.04727 17.9831 9.03926 17.7001 8.95912L18.2393 6.7915C15.7993 6.75944 14.1317 6.3147 12.1583 4.99249C11.5081 4.55976 11.313 4.06293 10.6667 4.11101C10.1771 4.21118 9.7641 4.43956 9.43901 4.80818C9.1254 5.16077 8.88827 5.64558 8.73529 6.26261L9.12922 8.8269C8.8615 8.887 8.63968 8.87498 8.4561 8.81488ZM19.054 8.24192C19.3331 8.33007 19.5358 8.49835 19.6582 8.75879C19.8571 9.17949 19.7768 9.80454 19.402 10.698C19.3943 10.7141 19.3867 10.7301 19.379 10.7461L18.029 13.074C17.505 13.9755 16.9772 14.877 16.2658 15.5742C15.5277 16.2994 14.6136 16.7842 13.3668 16.7802C12.2042 16.7762 11.3245 16.3114 10.6093 15.6223C9.91708 14.9612 9.39312 14.1117 8.8921 13.2783L7.71031 11.3071C7.27049 10.6219 7.04484 9.99285 7.02954 9.47599C7.02189 9.22757 7.06396 9.0032 7.15192 8.80286C7.24371 8.59451 7.38522 8.41822 7.58028 8.28199C7.67206 8.21788 7.77915 8.16179 7.89389 8.11771C7.82122 7.05594 7.79445 5.73773 7.84417 4.63188C7.87094 4.36343 7.91684 4.09498 7.9895 3.82654C8.29164 2.69264 9.05273 1.78312 9.98975 1.15406C10.3225 0.933695 10.682 0.749387 11.0683 0.605146C13.3439 -0.256296 16.3576 0.212489 17.9716 2.04355C18.6294 2.7888 19.0425 3.77845 19.1304 5.08464L19.054 8.24192Z" fill="#333333"/>
</svg>
