<svg width="24" height="24" viewBox="0 0 24 24" fill="none" xmlns="http://www.w3.org/2000/svg">
<circle cx="12" cy="12" r="11.5" fill="white" stroke="#163259"/>
<path fill-rule="evenodd" clip-rule="evenodd" d="M9.49333 8.8465C9.35273 8.85135 9.24727 8.88044 9.17455 8.93013C9.13333 8.95801 9.10303 8.99317 9.08364 9.03559C9.06182 9.08286 9.05212 9.13983 9.05333 9.20529C9.05939 9.39801 9.16 9.64892 9.35394 9.93862L9.35636 9.94226L9.98909 10.9483C10.2424 11.352 10.5079 11.7629 10.8388 12.0647C11.1564 12.3556 11.5418 12.552 12.0509 12.5532C12.6024 12.5544 13.0061 12.3507 13.3345 12.0441C13.6752 11.7253 13.9442 11.2877 14.2085 10.8513L14.9212 9.67801C15.0545 9.37498 15.1018 9.17256 15.0715 9.05377C15.0533 8.98347 14.9758 8.94832 14.8424 8.94104C14.8145 8.93983 14.7855 8.93983 14.7552 8.93983C14.7236 8.94104 14.6897 8.94226 14.6558 8.94589C14.6364 8.9471 14.6182 8.94589 14.6012 8.94226C14.5382 8.94589 14.4727 8.94104 14.4061 8.93135L14.6497 7.85135C12.84 8.1362 11.4861 6.79195 9.57212 7.58226L9.7103 8.85498C9.63394 8.85862 9.56121 8.85619 9.49333 8.8465ZM13.7976 13.1532C13.6861 13.0029 13.5758 12.8404 13.4752 12.6926C13.4291 12.6247 13.3842 12.5604 13.343 12.501C12.9976 12.7544 12.583 12.912 12.0521 12.9107C11.4812 12.9095 11.0412 12.7059 10.6776 12.398C10.6752 12.4017 10.6727 12.4053 10.6703 12.4089C10.6109 12.4913 10.5442 12.5883 10.4727 12.6926C10.3467 12.878 10.2048 13.0865 10.0642 13.2647L9.8703 13.0489C9.99394 12.8865 10.1224 12.6998 10.2364 12.5313C10.3103 12.4223 10.3794 12.3204 10.4376 12.2404C10.4473 12.2271 10.4594 12.215 10.4727 12.2065C10.1661 11.8926 9.92 11.512 9.68606 11.1374L9.05333 10.1326C8.82182 9.78832 8.70182 9.47195 8.69455 9.21377C8.69091 9.09256 8.71152 8.98104 8.75636 8.88529C8.80364 8.78347 8.87636 8.69862 8.97333 8.63316C9.01939 8.60286 9.0703 8.57619 9.12606 8.55559C9.08485 8.01013 9.0703 7.32286 9.09576 6.74832C9.10909 6.61135 9.13576 6.47559 9.17333 6.33862C9.33455 5.76165 9.74061 5.2962 10.2412 4.97741C10.4182 4.86468 10.6121 4.77135 10.8158 4.69741C11.1794 4.56529 11.0024 4.00892 11.4061 4.00044C12.3503 3.97862 13.8982 4.77741 14.5018 5.43074C14.8533 5.81013 15.0727 6.31438 15.1212 6.98104L15.0812 8.62226C15.257 8.67559 15.3685 8.7871 15.4145 8.9665C15.4655 9.16529 15.4097 9.4465 15.2412 9.83074C15.2376 9.83801 15.2352 9.84407 15.2303 9.85135L14.5103 11.038C14.2327 11.495 13.9503 11.9544 13.5745 12.3059L13.5588 12.3204C13.6036 12.3847 13.6533 12.4574 13.7055 12.5338C13.7867 12.6538 13.8752 12.7835 13.9648 12.9059L13.7976 13.1532ZM10.4776 13.7253C11.097 14.0598 12.2752 14.2986 13.3648 13.7798L12.1321 15.5689L10.4776 13.7253ZM14.383 13.2077C15.3006 13.6586 16.9867 13.8089 17.6739 14.192C17.9261 14.3326 18.1539 14.512 18.3382 14.7544C18.7952 15.358 18.8352 17.4368 19 18.1774C18.96 18.6089 18.7152 18.8574 18.2339 18.8938H13.0194L13.8097 18.3932C14.0897 18.2162 14.097 18.072 13.9212 17.8053L12.6606 15.8829C12.6739 15.8659 12.6873 15.8489 12.7006 15.8307L14.383 13.2077ZM12.0473 18.8926H5.76606C5.28485 18.8562 5.04 18.6077 5 18.1762C5.16606 17.4356 5.20485 15.3568 5.66182 14.7532C5.84485 14.5107 6.07273 14.3313 6.32606 14.1907C6.94667 13.8441 8.38061 13.6889 9.3297 13.3301L11.5636 15.8307C11.5806 15.8574 11.5988 15.8816 11.6158 15.9059L10.8109 16.4186C10.6752 16.5156 10.6352 16.6574 10.7164 16.8526L12.0473 18.8926ZM11.8364 16.1362C12.0291 16.278 12.223 16.2647 12.4158 16.1253C12.4424 16.118 12.4691 16.1095 12.497 16.0998C12.5006 16.1216 12.503 16.1447 12.503 16.1689C12.503 16.3798 12.3321 16.5495 12.1224 16.5495C11.9127 16.5495 11.7418 16.3786 11.7418 16.1689C11.7418 16.1459 11.7442 16.1229 11.7479 16.0998C11.7758 16.1144 11.8061 16.1265 11.8364 16.1362Z" fill="#163259"/>
</svg>
